<?xml version="1.0" encoding="utf-8"?>
<!-- Generator: Adobe Illustrator 21.0.0, SVG Export Plug-In . SVG Version: 6.00 Build 0)  -->
<svg version="1.1" xmlns="http://www.w3.org/2000/svg" xmlns:xlink="http://www.w3.org/1999/xlink" x="0px" y="0px"
	 viewBox="0 0 152 152" style="enable-background:new 0 0 152 152;" xml:space="preserve">
<style type="text/css">
	.st0{fill:#FAFAFA;}
	.st1{fill:#FFDD67;}
	.st2{fill:#664E27;}
	.st3{fill:#4C3526;}
	.st4{fill:#FF717F;}
	.st5{fill:#FFFFFF;}
	.st6{fill:#467591;}
	.st7{fill:#EF5350;}
	.st8{fill:#302424;}
	.st9{fill:#65B1EF;}
	.st10{fill:#917524;}
</style>
<g id="back">
	<path class="st0" d="M140,152H12c-6.6,0-12-5.4-12-12V12C0,5.4,5.4,0,12,0h128c6.6,0,12,5.4,12,12v128C152,146.6,146.6,152,140,152
		z"/>
</g>
<g id="图层_10">
	<g>
		<circle class="st1" cx="42" cy="42" r="30"/>
		<path class="st2" d="M59.7,44.4c-0.4-0.5-1.1-0.4-1.9-0.4H26.2c-0.8,0-1.5-0.1-1.9,0.4C20.4,49.4,25,64,42,64
			C59,64,63.6,49.4,59.7,44.4z"/>
		<path class="st3" d="M43.8,51.7c-0.6,0-1.5,0.5-1.1,2c0.2,0.7,1.2,1.6,1.2,2.8c0,2.4-3.8,2.4-3.8,0c0-1.2,1-2,1.2-2.8
			c0.3-1.4-0.6-2-1.1-2c-1.6,0-4.1,1.7-4.1,4.6c0,3.2,2.7,5.8,6,5.8c3.3,0,6-2.6,6-5.8C48,53.5,45.4,51.8,43.8,51.7z"/>
		<path class="st4" d="M34.3,60.7c2.2,1,4.8,1.5,7.7,1.5c2.9,0,5.5-0.6,7.7-1.5C47.6,59.6,45,59,42,59S36.4,59.6,34.3,60.7z"/>
		<path class="st5" d="M57,46H27C25,46,25,50,27,50h30C59,50,59,46,57,46z"/>
		<circle class="st2" cx="30.5" cy="33" r="5"/>
		<circle class="st2" cx="53.5" cy="33" r="5"/>
	</g>
	<g>
		<path class="st1" d="M140,42c0,16.6-10.8,30-30,30c-16.6,0-30-13.4-30-30c0-16.6,13.4-30,30-30S140,25.4,140,42z"/>
		<path class="st6" d="M104.8,31.3c-0.2-0.4-0.7-0.6-1.1-0.3l-2,1.2l0.7-5c0-0.2,0-0.4-0.1-0.5l-0.6-1.2c-0.1-0.2-0.3-0.3-0.5-0.4
			c-0.2-0.1-0.4,0-0.6,0.1l-4.9,2.9c-0.2,0.1-0.3,0.3-0.4,0.5c-0.1,0.2,0,0.4,0.1,0.6l0.7,1.3c0.2,0.4,0.7,0.6,1.1,0.3l1.9-1.1
			l-0.7,4.9c0,0.2,0,0.4,0.1,0.5l0.7,1.3c0.2,0.3,0.5,0.5,0.9,0.4c0.1,0,0.1,0,0.2-0.1l5-2.9c0.2-0.1,0.3-0.3,0.4-0.5
			c0.1-0.2,0-0.4-0.1-0.6C105.5,32.6,104.8,31.3,104.8,31.3z M118.5,18.1c-0.1-0.2-0.3-0.3-0.5-0.4l-7.9-2c-0.4-0.1-0.8,0.2-0.9,0.6
			l-0.4,1.9c0,0.2,0,0.4,0.1,0.6c0.1,0.2,0.3,0.3,0.5,0.4l3.6,0.9l-5.5,4.7c-0.1,0.1-0.2,0.3-0.3,0.5l-0.4,1.9c0,0.2,0,0.4,0.1,0.6
			c0.1,0.2,0.3,0.3,0.5,0.4l8,2c0.2,0,0.4,0,0.6-0.1c0.2-0.1,0.3-0.3,0.3-0.5l0.4-1.9c0.1-0.4-0.2-0.9-0.6-1l-3.8-1L118,21
			c0.1-0.1,0.2-0.3,0.3-0.5l0.4-1.8C118.7,18.5,118.6,18.3,118.5,18.1z M133,32.4c0.2-0.1,0.3-0.2,0.4-0.4l1.2-2.5
			c0.2-0.4,0-0.8-0.4-1c0,0,0,0,0,0l-5.8-2.8l10.1-5c0.2-0.1,0.3-0.2,0.3-0.4l1.1-2.3c0.2-0.4,0-0.8-0.4-1c0,0,0,0,0,0l-10.6-5
			c-0.4-0.2-0.8,0-1,0.4c0,0,0,0,0,0l-1.2,2.5c-0.2,0.4,0,0.8,0.4,1c0,0,0,0,0,0l5.5,2.6l-10,4.9c-0.2,0.1-0.3,0.2-0.3,0.4l-1.2,2.5
			c-0.2,0.4,0,0.8,0.4,1l10.8,5.1C132.6,32.5,132.8,32.5,133,32.4z"/>
		<path class="st2" d="M128,55.2c0.8,1.2,1.1,3.6-0.6,4.7c-1.4,0.9-3.7,0.7-5.4,1.8c-1.8,1.2-2.5,3.3-3.9,4.2
			c-1.9,1.2-3.7-0.2-4.5-1.4c-1.4-2.2,0.7-6.1,4.7-8.6C122.2,53.3,126.6,53,128,55.2z"/>
		<g>
			<path class="st2" d="M116.3,43.6c7.2,5.4,14.9,1.8,15.3-7.1c0-0.5-0.6-0.4-1.4-0.5c-2.4,4.8-8.7,7.4-13.5,6.3
				C116.4,43,116,43.4,116.3,43.6z M93.9,54.1c7.2,5.4,14.9,1.8,15.3-7.1c0-0.5-0.6-0.4-1.4-0.5c-2.4,4.8-8.7,7.4-13.5,6.3
				C94,53.4,93.5,53.8,93.9,54.1z"/>
		</g>
	</g>
	<g>
		<circle class="st7" cx="42" cy="110" r="30"/>
		<path class="st8" d="M51,127.7c-5.8-4.8-12.2-4.8-18,0c-0.7,0.6-1.3-0.4-0.8-1.3c1.8-3.4,5.3-6.5,9.8-6.5s8.1,3.1,9.8,6.5
			C52.3,127.2,51.7,128.2,51,127.7z"/>
		<path class="st5" d="M20.2,102.9c-1.5,4.7,0.6,10,5.3,12.1c4.6,2.2,10,0.5,12.7-3.7l-6.9-7.7C31.2,103.6,20.2,102.9,20.2,102.9z"
			/>
		<path class="st8" d="M24.2,103.8c-1.4,2.9-0.1,6.4,2.8,7.8s6.4,0.1,7.8-2.8c0,0,0,0,0-0.1C35.7,106.8,25.1,101.9,24.2,103.8z"/>
		<path class="st8" d="M20.2,102.9c1.6-1,3.5-1.5,5.4-1.5c1.9,0,3.8,0.5,5.6,1.3c1.7,0.8,3.3,2,4.6,3.4c1.2,1.5,2.2,3.2,2.4,5.1
			c-1.3-1.3-2.6-2.4-4-3.4c-1.3-0.9-2.8-1.8-4.2-2.4c-1.5-0.7-3-1.2-4.6-1.7C23.6,103.4,22,103.1,20.2,102.9z"/>
		<g>
			<path class="st5" d="M63.8,102.9c1.5,4.7-0.6,10-5.3,12.1c-4.6,2.2-10,0.5-12.7-3.7l6.9-7.7C52.8,103.6,63.8,102.9,63.8,102.9z"
				/>
			<path class="st8" d="M59.8,103.8c1.4,2.9,0.1,6.4-2.8,7.8c-2.9,1.4-6.4,0.1-7.8-2.8c0,0,0,0,0-0.1
				C48.3,106.8,58.9,101.9,59.8,103.8z"/>
			<path class="st8" d="M63.8,102.9c-1.6-1-3.5-1.5-5.4-1.5c-1.9,0-3.8,0.5-5.6,1.3c-1.7,0.8-3.3,2-4.6,3.4
				c-1.2,1.5-2.2,3.2-2.4,5.1c1.3-1.3,2.6-2.4,4-3.4c1.3-0.9,2.8-1.8,4.2-2.4c1.5-0.7,3-1.2,4.6-1.7C60.4,103.4,62,103.1,63.8,102.9
				z"/>
		</g>
	</g>
	<g>
		<path class="st1" d="M80,110c0,16.6,13.4,30,30,30s30-13.4,30-30s-13.4-30-30-30S80,93.4,80,110z"/>
		<path class="st9" d="M126.5,94.3c0,9.9,13.5,9.9,13.5,0c0-7.2-6.7-14.3-6.7-14.3S126.5,87.1,126.5,94.3z"/>
		<circle class="st2" cx="121.5" cy="114" r="5"/>
		<circle class="st2" cx="98.5" cy="114" r="5"/>
		<g>
			<path class="st10" d="M103.6,99.9c-3.2,2.7-7.5,3.9-11.7,3.1c-0.6-0.1-1.1,2-0.4,2.2c4.8,0.9,9.8-0.5,13.5-3.6
				C105.5,101.1,104,99.5,103.6,99.9z M128.1,102.9c-4.2,0.7-8.5-0.4-11.7-3.1c-0.4-0.4-2,1.2-1.4,1.7c3.7,3.2,8.7,4.5,13.5,3.6
				C129.2,104.9,128.7,102.8,128.1,102.9z"/>
		</g>
		<g>
			<path class="st2" d="M118,130h-16c-1.5,0-1.5-4,0-4h16C119.5,126,119.5,130,118,130z"/>
		</g>
	</g>
</g>
</svg>
