<?xml version="1.0" encoding="utf-8"?>
<!-- Generator: Adobe Illustrator 21.0.0, SVG Export Plug-In . SVG Version: 6.00 Build 0)  -->
<svg version="1.1" id="图层_1" xmlns="http://www.w3.org/2000/svg" xmlns:xlink="http://www.w3.org/1999/xlink" x="0px" y="0px"
	 viewBox="0 0 538.2 283.5" style="enable-background:new 0 0 538.2 283.5;" xml:space="preserve">
<style type="text/css">
	.st0{fill-rule:evenodd;clip-rule:evenodd;fill:#971E30;}
	.st1{fill-rule:evenodd;clip-rule:evenodd;fill:#55B448;}
	.st2{fill:#971E30;}
	.st3{fill:#61235A;}
</style>
<g>
	<g>
		<g>
			<g>
				<g>
					<path class="st0" d="M359.7,241.3c-0.7-0.3-1.3,0-2.1-0.1c-1.4-0.2-3.3-0.5-4.6-0.7c-0.4-0.2-2.1,0.1-2.5,0.7
						c0.5,0,1.1-0.1,1.7-0.1c0.4,0,0.9,0.1,1.7,0.3c0.9,0.1,1.8,0.3,2.6,0.5c1.3,0.3,1.6,0.4,2.5,0.9c0.3,0.2,0.5,0.9,0.5,1.5
						c0.1,0.8,0.1,1.3,0,2c-0.2,1.2-0.8,2.4-1.3,3.7c-0.5,1.2-0.9,2.7-1.2,3.5c-0.4,1.2-1.3,2.5-1.9,3.5c-0.1,0.2-0.4,0.8-0.7,0.7
						c-0.7-0.7-1.7-2-1.9-2.3c-0.3-0.2-0.1-1.7,0.1-2.1c0.6-0.6,1.4-0.2,2.2-1.2c0.6-0.8,0.3-1.3,1.5-3.3c1.6-2.6,1.5-3,0.8-4
						c-0.1-0.1-0.1-0.4-0.4-0.5c-0.5-0.3-1.4-0.6-1.4-0.4c-0.1,1.3,0.3,1.4,0.7,2.1c0.4,0.5-0.8,1.8-1.6,2.8
						c-0.1,0.2-0.3,0.3-0.4,0.4c0.1,0.1,0.2,0.1,0.3,0.2c0.1,0.1-0.2,0.6-0.4,0.8c-0.2,0-0.4-0.1-0.6-0.3c0,0,0.1-0.3,0.2-0.5
						c-0.2,0-0.3,0-0.4-0.2c-0.3-0.4-0.2-1.2-0.1-1.8c0-0.4,0.1-0.8,0.2-1.3c0.1-0.4,0.5-0.8,0.5-1.3c0-0.3-0.2-0.7-0.3-1.1
						c-0.1-0.3,0-0.6-0.1-0.8c-0.2-0.2-0.1-0.8-0.5-0.9c-0.9-0.2-1,1.9-1.5,2.3c-0.3,0.2-1.1,0.1-1.7-0.1c-0.3-0.1-0.8-0.1-0.9-0.1
						c-0.2,0.1,0.1,0.4,0.2,0.7c0.1,0.2,0.1,0.3,0.2,0.6c0.1,0.2,0.2,0.4,0.1,0.6c-0.1,0.4-0.4,0.7-0.3,0.9c0.1,0.3,0.6,0.1,1.1,0.3
						c-0.1,0.4-1.4,0.9-1.4,1c0,0.1,0.3,0.2,0.5,0.3c0.7-0.1,1.1-0.3,1.6-0.2c0.2,0.6,0.2,1,0.1,1.3c-0.3,0.7-2.6,0.9-3.7,0.2
						c0.1-0.4,0.5-1.2,0.4-1.1c-0.6,0.1-0.8,0.5-1.5,0.7c-0.4,0.1-0.5,0.1-0.8,0c0.4-1.2,1.4-3.8,1.7-4.1c0.5-0.5,0.8-1.7,0.9-2.1
						c0.1-0.5-0.1-0.9-0.3-0.8c-1.1,0.4-2,1.8-3.1,3.4c-0.4,0.7-2.5,4.8-3.2,6.7c-0.1,0.5,0.2,1.1,0.5,1.2c0.4,0.1,1.1,0,1.3-0.2
						c0.4-0.6,0.8-1.7,1.4-2.8c0.9,0.4,1.8,0.7,2.6,0.8c0.9,0,1.5,0.1,2.1,0c0.6-0.1,1.1-0.3,1.3-0.3c0.3,0,0.5,0,0.6,0.2
						c-0.2,0.4-0.2,0.9-0.4,1c-0.9,0.5-1.5,0.9-1.4,1c0.4,0.1,1,0,1.4,0c0.1,0.1,0.2,0.2,0,0.6c0,0.3-0.1,0.6-0.4,0.7
						c-0.3,0.2-0.5,0.4-0.7,0.4c-0.4,0-0.8-0.3-1.4-0.5c-0.6-0.2-0.9-0.1-1.2-0.3c-0.1-0.1-0.1-0.3,0.3-0.4c0.3-0.1,0.5-0.4,0.5-0.6
						c-0.3-0.1-2.1,0.2-2.3,0.4c-0.4,0.9-0.1,0.9-0.2,1.3c-0.2,0.7-0.3,0.9-0.2,1c0,0.1,0.5,0.3,0.8,0.3c0.7-0.1,0.7-0.1,1.1-0.1
						c0.4,0,2,0.3,2.9,0.6c0.6,0.2,2.3,0.3,2.4,0.5c0.3,0.9,1,1.8,1.1,2.2c0,1.2,0.6,1.4,0.7,1.9c0.1,0.4-0.3,0.8-0.2,1
						c0.1,0.1,0.5,0.2,0.7,0.2c0.7-0.1,1.2-0.3,1.5-0.5c0.5-0.3,1.8-4.5,3.3-7.7c0.8-1.9,1.1-4,1.9-6.1c0.2-0.8,0.5-1.6,0.5-2.3
						c0.1-1-0.1-1.8-0.3-2.5C361,242.2,360.7,241.8,359.7,241.3z M381.8,250.4c0-0.1-0.2-0.2-0.3-0.2c-0.1,0-0.3,0-0.5,0.1
						c-1.2,1.5-2.3,2.5-3.5,4c-1.1,1.2-1.9,2.5-2.6,3.5c-1.6,2-2.6,3.4-4.5,5.6c-0.1,0.1-0.4,0.4-0.4,0.6c-0.1,0.2-0.3,0.7,0,0.8
						c0.3,0,0.6,0,0.8,0c0.4-0.1,1.7-0.7,2.4-1.2c0.9-1,2.5-3.6,4-5.6c0.9-1.3,2.2-2.6,2.9-3.7C381.4,252.3,381.9,250.9,381.8,250.4
						z M331.2,230.8c0.9,0.8,1.7,1.4,2.2,2.2c0.2-0.2,0.3-0.5,0.3-0.6c-0.2-0.2-0.2-0.3-0.6-0.6c-1.3-0.9-2.5-2.4-2.7-2.2
						c-0.1,0.1-0.1,0.1-0.2,0.2C330.5,230.1,330.8,230.4,331.2,230.8z M391.2,265.9c-2.3-0.9-4.3-2.1-6.8-3.9
						c-2.8-2.1-4.7-4.6-5.2-4.2c-0.3,0.4,1,1.6,2.1,2.9c1.4,1.7,2,2.1,3,3.1c1.2,1.2,1.9,2.7,2.9,3.3c0.8,0.5,1.7,0.7,2.4,0.7
						c0.7,0.1,1.2,0.1,2.3,0.1c0.7-0.1,0.6-0.5,0.4-0.9C392.2,266.7,391.9,266.2,391.2,265.9z M333.5,233c-0.6,0.7-2.3,1.6-4.7,0.2
						c-0.4-0.2-1.3-0.3-1.2-0.8c0.7-0.8,1.9-2,2.7-2.7c-0.1-0.2-0.2-0.4-0.3-0.6c-0.1-0.4,0.1-0.7,0.6-1.2c0.5-0.4,0.9-0.8,1.3-1.1
						c0.2-0.2,0-0.8-0.1-1c-0.4-0.4-0.6-1.4-1-1.3c-0.5,0.2-0.4,0.2-0.8,0.7c-0.2,0.2-0.3,0.4-0.5,0.7c-0.5,0.5-1.3,1.3-1.5,1.3
						c-1.1-0.2-2.5-1-3.5-1.4c-0.5-0.3-0.1-1.1-0.3-1.6c-0.1-0.4-0.4-0.8-0.7-1c-0.1,0.1-0.1,0.1-0.2,0.2c-0.3,0.6-0.5,1.2-0.8,1.8
						c-0.6,1-1.2,2-1.8,3.1c-0.1,0.2-0.2,0.2-0.2,0.4c-0.1,0.4,0,0.4,0.3,0.7c0.2,0.2,0.4,0.3,0.6,0.2c0.8-0.6,1.7-1.8,2.4-2.3
						c0.3-0.3,0.5-0.6,0.7-0.4c0.3,0.3,0.9,0.6,1.4,1c0.3,0.3,0.8,0.7,0.8,0.8c-0.9,1-2.1,2-2.5,2.5c-1.5-1-1.3-0.7-1.9-0.5
						c-0.2,0.4,1,1,0.7,1.5c-1.4,1.4-3.6,3.2-5.4,4.9c-0.6,0.6-1,1.2-1.5,1.8c-0.4,0.5-0.9,1.2-1.1,1.7c-0.2,0.5-0.2,0.7,0,0.9
						c0.1,0.1,0.1,0.1,0.3,0.1c0.7,0,0.9,0,1.9-0.5c0.4-0.3,0.9-1,1.9-1.9c0.5-0.5,3.8-3.4,4.3-3.8c0.6-0.6,1-0.9,1.5-1.3
						c0.3,0.1,0.9,0.6,1.9,1c0.5,0.2,0.8,0.4,1.5,0.6c0.3,0,0.7,0,1.3,0.6c1.8,1.5,2.3,1.6,2.5,1.4c1-0.8,0.7-0.8,1.1-1.5
						c0.5-1,0.9-1.8,0.5-2.6C333.7,233.4,333.6,233.2,333.5,233z M464.7,222.9C464.7,222.9,464.7,222.9,464.7,222.9
						c-0.3-0.4-0.3-0.3-0.4-0.2c-0.1,0.1-1.7,1.2-2.2,1.7c0.2,0,0.5,0.2,0.6,0.3C463.6,223.9,464.2,223.3,464.7,222.9z M461.5,228.5
						c0-0.2-0.1-0.4-0.1-0.4c-0.1,0.1-0.4,0.3-0.7,0.6c0.1,0.1,0.1,0.2,0.2,0.3C461.1,228.8,461.3,228.7,461.5,228.5z M420.5,260.1
						c-0.4,1.8-0.8,3.5-2.1,4.5c-0.2,0.2-0.7,0.5-1.2,0.5c-0.5-0.1-1-0.5-1.5-1.2c-1-1.5-1.6-3.1-1.5-4.3c0.6-0.3,1.3-0.9,2.2-1.5
						c0.6-0.7,1.2-1.5,0.9-1.9c-0.2-0.2-0.3-0.2-1.7,0.2c-0.8,0.3-1.7,1-2,1.1c-0.4-0.1-0.6-0.7-1-0.9c-0.5-0.3-1.4-0.2-1.5,0
						c-0.4,0.6-0.1,2.3,0,3.2c-0.1,0.4-1.9,1.9-2.6,2.7c-0.2,0.2-0.4-3.8-0.4-6.9c-0.1-0.5,4-0.3,4.4-0.7c0.5-0.4,1.2-2,1.6-2.9
						c0.3-0.8,0.7-1.7,0.3-2.6c-0.2-0.4-0.2-0.6-0.9-0.6c-0.7,0-0.9,0.5-1.3,0.7c-0.3,0.2-1.3,0.1-1.8,0.4c-0.6,0.3-1.3,1-1.9,1.3
						c-0.7,0.4-0.8,1-0.7,1c2.2-0.8,2.6-1,3-1.1c0.2,0,0.1,0.2,0,0.5c0,1.1-0.5,1.7-0.8,2.6c-0.7,0.2-1.4,0.2-2.1,0.1
						c-0.5-0.1-1.3-0.5-1.8-0.6c-0.3,0-1.2,0.3-1.3,1c-0.2,1.3,0.1,2.5,0.2,4.2c0.1,2.8-0.1,6.3,0,8.3c0.1,0.4,0.1,1,0.3,1.1
						c0.3,0.1,2,0.2,2.5-0.2c0.6-0.4,0.3-1.5,0.5-3.5c0.1-0.2,0.2-0.4,0.3-0.5c0.6-0.9,1.6-1.7,2.8-2.5c0.7,2.1,1.8,3.9,3,5.3
						c0.7,0.6,3.1,1.2,4.1,0c2-1.9,2.3-3.5,2.5-5.5c0-0.4,0.1-0.6,0-1.5C420.9,259.5,420.6,259.5,420.5,260.1z M476.6,235.4
						c-0.4-0.1-1.1-0.4-1.2-0.4c-0.3,0-1.2,0.8-2.2,1.6c-0.2,0.1-0.2,0.2-0.4,0.3c-0.2,0.1-0.3,0.2-0.4,0.1c-0.4-0.3-0.6-0.7-0.8-1
						c-0.1-0.4-0.1-0.8-0.1-1.2c-0.1-0.6-0.7-0.9-0.9-1.2c-0.1-0.6,0.1-0.7,0.2-1.2c0.1-0.4,0.5-0.7,0.9-1c0.3-0.1,0.5,0.1,0.8,0
						c0.6-0.3,1.1-0.6,1.6-0.9c0.6-0.5,0.3-0.8-0.3-1.4c-0.8-0.8-2.2-0.8-3.1-0.6c-0.5,0.1-1.4-1.4-2.2-2.9
						c-0.3-0.7-0.5-1.3-0.8-1.9c-0.8-1.5-1.4-1.8-1.6-1.7c-0.4,0.1-0.5,0.2-0.9,0.6c-0.1,0.1-0.3,0.2-0.4,0.3
						c0.3,0.4,0.5,0.8,0.3,0.9c-0.2,0.3-1,0.8-1,1.5c-0.4,0.4-0.8,0.6-1.1,0.9c-0.2,0.1-0.4,0.3-0.4,0.3c-0.2-0.4-0.3-1.5-0.5-2
						c0,0,0.1-0.1,0.1-0.1c-0.2,0-0.4,0.1-0.2,0.5c0.1,0.3,0.3,0.9,0.4,1.4c0.1,0.7,0.3,1.4,0.2,1.6c-0.2,0.3-0.6,0.5-0.9,0.7
						c0.1,0.5,0,1.2,0,1.3c0,0.1-0.1,0.4-0.4,0.6c-0.3-0.4-0.9-1.3-1-1.4c0.1,0,0.3-0.2,0.5-0.4c-0.2-0.4-0.6-0.7-0.9-0.8
						c-0.4-0.1-0.9,0.1-1,0.3c-0.3,0.3,1.4,2.1,2.9,4.2c1,1.4,2,3.5,2.5,4.2c-0.4,1.1-0.9,2-1.3,3.1c-0.2,0.4-0.5,0.8-0.9,0.8
						c-0.4-0.3-0.6-0.5-0.9-0.5c-0.5-0.1-0.8-0.1-1.1,0.1c-0.1,0.1-0.5,0.3-0.4,0.6c0.2,0.5,0.7,1.1,1.1,1.8c0.1,0.3,1.5,3.9,1.7,4
						c0.4,0.1,0.6,0.4,1,0.2c0.5-0.3,1-0.5,1-1.3c0.2-1.2-1.5-3.2-1.4-4c0.2-0.3,0.6-0.9,0.8-1.2c0.4-0.5,0.2-0.8,1.1-2.3
						c0.5-0.9,1-1.5,1.5-2.2c0.8-1.1,0.7-1.5,1-2c0.3-0.5,1.1-0.8,1.6-1.4c0.3-0.3,0.3-0.6,0.5-0.9c0.2-0.3,0.4-0.4,0.7-0.8
						c0.1-0.1,0.3-0.3,0.5-0.3c0.5,0,0.6,0.1,0.4,0.6c-0.5,0.9-1,1.7-0.9,2.7c-0.1,0.3-0.2,0.2-0.5,0.8c-0.1,0.2-0.3,0.6-0.5,0.9
						c-0.8,0.8-1.7,1.8-2.6,2.8c-0.2,0.2,0,0.4,0.2,0.5c0.2,0.2,1.2,0,1.9-0.4c0.3-0.2,0.3-0.7,0.5-1c0.1-0.3,0.5-1.7,0.9-1
						c0.3,0.5,0.6,1,0.7,1.3c0.2,0.4,0.5,0.7,0.7,1.1c-0.2,0.5-0.5,1.2-1,1.7c-0.6,0.8-1.4,1.4-2.2,2.5c-0.6,0.9-0.4,2.1-0.2,2.1
						c0.6,0,1.5-0.9,2.2-2.1c0.6-0.9,0.9-1.8,1.3-2.7c0.1-0.3,0.5-0.7,0.9-0.2c0.5,0.7,0.2,1.1,0.5,1.6c0.2,0.6-0.7,1.2-1.8,1.9
						c-0.4,0.3-1.3,0.9-1.5,1c-0.2,0.3,0.8,0,1.2-0.1c0.5-0.1,0.9-0.4,1.7-0.7c1.2-0.4,1.8-0.2,2.4-0.6c0.4-0.2,1-1.1,0.9-2.1
						c-0.2-1-1.1-1.8-2.2-3.1c-0.2-0.3-0.2-0.3,0-0.4c0.1-0.1,0.2-0.1,0.3-0.2c0.6-0.4,1.1-0.6,1.3-0.7c0.5-0.2,1.1-0.3,1.4-0.4
						C477.3,236.1,476.8,235.5,476.6,235.4z M464.2,234c-0.1,0.1-0.3,0-0.5-0.1c-0.4-0.4-1.1-1.3-1.8-2.4c0.1-0.3,0.3-0.8,0.4-1.1
						c0.1-0.2,0-0.3,1-0.1c0.3,0,0.5,0.2,0.8,0.3C464.2,232.7,464.4,233.5,464.2,234z M464.2,229.4c-0.7-0.1-1.2,0-1.7-0.2
						c0-0.8,0.1-1.6,0.1-2.3c0.3-0.2,0.8-0.7,1-0.9c0.2,0,0.6,0.1,0.7,0.5C464.4,227,464.2,229.1,464.2,229.4z M465.1,225.3
						c0.1-0.1,0.4-0.6,0.7-0.4c0.2,0.2,0.6,1,0.7,1.4c0,0.2-1,0.7-1.1,0.8C465.3,226.5,465,225.7,465.1,225.3z M466.9,232.8
						c-0.1,0.1-0.3,0.1-0.3,0.1s-0.2-0.3,0-0.7c0,0,0.4-0.2,0.5,0.2C467.1,232.7,467,232.8,466.9,232.8z M466.6,230.2
						c-0.3-0.2-1-0.4-1.3-0.6c-0.1-0.8,0.1-1.4,0.2-1.4c0.5-0.3,1.3-1.2,1.5-1c0.4,0.9,0.5,1.4,0.7,1.8
						C467.7,230.2,467.5,230.7,466.6,230.2z M462.3,236.5c0.3-0.1,0.5-0.4,0.6-0.6c0-0.5-3.5-4.2-3.9-4.2c-0.3-0.1-2.5,0.4-2.3,0.7
						c0.3,0.5,0.9,0.6,1.4,1.1c1.5,1.3,3,2.8,3.3,2.9C461.8,236.6,462.1,236.6,462.3,236.5z M452.1,256c-0.5-0.1-1.4,0.2-2.6,0
						c-1.7-0.3-2.4-1-4.7-2.2c-0.6-0.3-1.1-0.6-1.7-0.9c-0.9-0.6-1.5-0.9-2.1-1.4c-0.2-0.2-0.8-0.6-0.4-1.1c1-1,1.8-2.1,2.7-2.8
						c0.7-0.4,1.4-0.5,2.4-0.9c0.1-0.1,0.2-0.2,0.2-0.4c0-0.4-0.1-0.7-0.4-0.8c-0.5-0.3-0.6-0.2-1-0.3c-0.6,0-1.1,0.1-1.6,0.3
						c-1,0.5-1.6,1.4-2.3,2.2c-0.3,0.4-0.9,0.8-1.2,1.1c-0.3,0.3-0.6,0.4-0.7,0.3c-0.6-1-0.9-2.9-0.9-4.4c0-0.1-0.2-0.7-0.4-0.9
						c-0.2-0.2-0.6-0.2-0.8-0.2c-0.9-0.2-1.6-0.2-1.9,0.4c0.3,1.3,0.8,2.4,1.1,3.4c0.4,1.4,0.9,2.7,0.8,3.5c-0.3,0.6-1,1.6-2.4,2.3
						c-0.5,0.2-0.6,0.3-1.1,0.4c-0.3,0.1-0.6,0.1-0.7,0.3c-0.3,0.2-0.5,0.4-0.3,0.8c0.4,0.7,0.6,0.6,1.2,0.5c0.7,0,1.2-0.2,1.4-0.4
						c0.8-0.5,1.1-0.8,2.1-1.3c0.2-0.1,0.4,0.2,0.4,0.5c0.3,1.9,0.2,2.9,0.1,4.3c-0.2,1.5-0.3,2.7-1,4c-0.3,0.7-0.2,1.1,0.1,1.1
						c0.2,0,0.2-0.2,0.8-0.9c0.5-0.6,1.3-1.3,1.5-1.7c0.4-0.7,0.4-1.5,0.7-3c0.1-1,0-1.8-0.5-5c0-0.1-0.1-0.3-0.1-0.4
						c0-0.1,0.1-0.2,0.2-0.5c0.2-0.4,0.3-0.5,0.6-0.8c1.1,1.2,1.8,2,2.4,2.6c0.4,0.4,0.9,0.6,1.4,1c1.8,1.4,3.6,2.5,5.4,3.4
						c1,0.4,2.4-0.3,3.8-0.8c0.2-0.1,0.7-0.5,0.7-0.7C453.3,256.5,453.3,256.3,452.1,256z M353.8,248.9c-0.1,0.1-0.1,0.2-0.2,0.3
						c0.1,0,0.3-0.1,0.4-0.2C353.9,249,353.8,248.9,353.8,248.9z"/>
				</g>
			</g>
		</g>
		<path class="st1" d="M347.4,210.1"/>
		<g>
			<g>
				<path class="st2" d="M377.6,212.2c1.3-0.6,2.6-1.3,3.7-2.1h3v14.6h-3.2v-11.5c-1,0.8-2.2,1.4-3.5,1.9V212.2z"/>
				<path class="st2" d="M391.2,221c0.2,1.2,0.7,1.8,1.6,1.8c1.6,0,2.4-1.5,2.2-4.6c-0.8,0.7-1.8,1-2.9,0.9
					c-2.6-0.3-4.1-1.8-4.4-4.4c0.2-3.1,1.9-4.7,5.2-4.9c3.6-0.1,5.3,2.1,5.3,6.5c0.1,3.1-0.3,5.3-1.2,6.6c-0.9,1.3-2.3,2-4.2,2
					c-3.2,0.1-4.8-1.2-4.9-3.8H391.2z M393.1,217c1.2-0.1,1.8-0.9,1.9-2.5c-0.1-1.7-0.7-2.6-1.9-2.6c-1.4,0-2.1,0.9-2.1,2.6
					C391,216.2,391.7,217,393.1,217z"/>
				<path class="st2" d="M402.7,220.6c0.1,1.3,0.7,2.1,1.8,2.2c1.2-0.1,1.8-0.9,1.9-2.2c-0.1-1.6-1.2-2.4-3.5-2.4v-2.1
					c2.4-0.1,3.6-0.8,3.5-2.3c-0.1-1.3-0.7-1.9-1.8-2c-1,0.2-1.6,0.8-1.7,2h-3.2c0.2-2.6,1.8-4,4.9-4.1c3.1,0.3,4.7,1.5,4.9,3.7
					c-0.1,2-1,3.2-2.8,3.6c1.9,0.5,2.9,1.9,2.9,4c-0.3,2.3-2,3.6-5.2,3.8c-3.3,0-4.9-1.4-4.9-4.2H402.7z"/>
				<path class="st2" d="M420.9,210.1v2.7l-4.5,11.9h-3.1l4.7-12.2h-6.5v-2.4H420.9z"/>
			</g>
			<path class="st0" d="M357.6,63.2c1.9,0,3.8,0.6,4.4,0.9c0.7,0.5,2.3,2.3,2.4,3.6c0.3,7.8-3.1,12.5-1.6,20.4
				c2,10.1,6.8,17.8,8.9,27c8.3-2.2,19.4-15.1,21.1-24c0.9-5-0.2-10.4-1.2-15.1c-0.7-3.6-1.6-6.7-0.3-10.1c0.9-2.3,3.4-2.7,6-2.9
				c4.5,0.3,5.5,1.7,6.6,4c1.6,5-2.7,8.1-1.5,17.8c1.2,9.9,6.3,26.3,10.6,29.9c7.4-5.4,17.1-13.4,19.4-23.6
				c1.9-8.4-6.7-22.7-0.2-26.7c3.3-2.3,7-1.8,9.4,0c0.8,0.6,1.2,1.6,1.7,2.2c0.3,0.3,0.6,2.1,0.3,4.6c-0.2,2.1-1.4,4.2-1.7,7
				c-0.6,4.9-0.2,10.8,1,14.9c2.8,10.5,12.6,21.3,9.3,35.8c-3.1,13.5-12.9,16.7-15.6,37.4c-1.5,12.1,7.5,28.6,6.2,35.5
				c-0.4,1.9-0.9,3.5-3.3,4.6c-2.4,0.9-4.7,0.1-5.9-0.8c-6.2-3.3-9.9-26.9-7.6-40.9c2-12.3,5.4-18.9,13.9-32.3
				c3.4-8.4,3-17.2-3.7-26.7c-6.6,7.2-13.5,14.7-23.6,20.2c-0.3,14-13.5,22.5-15.6,37.9c-0.7,5.1,0.2,14.7,3,23
				c3.5,9.5,4.6,16.1,0.8,18.7c-2.4,1.3-4.1,1.4-6.7,0.4c-2.1-1-5-7.4-6.6-15.5c-2.4-12.1-2.6-28.4,1.4-38.8
				c4.6-11.6,16.9-19.4,12.1-34.7c-0.9-3.2-2.2-7.6-4.5-11.2c-0.3,0.1-0.6,0.3-0.8,0.4c-3.7,7.8-14.9,16-22.7,19.8
				c-0.4,13.4-14.5,22.4-15.6,38.3c-1.2,18.6,6.3,26.6,5.9,37.9c-0.2,1.8-1,3.3-3,4.3c-1.8,0.8-3.2,0.8-5.5,0
				c-6.6-2.4-14-34.5-3.4-59.8c2.9-6.9,9-11.5,11-19.8c1.9-8.2-5.5-21.4-5.5-21.4s-17.6,22-27.4,21c-1.9-1.4-2.7-1.4-2.9-4.6
				c0-3.2,5.5-5.7,8.8-8.4c6.5-5.2,13-10.4,16.9-19c3.8-8.3-1.7-17.2-0.8-27.8C351.4,64.1,354,63.2,357.6,63.2z"/>
			<g>
				<path class="st2" d="M291.4,168.3l0.9,3.9l-18.1,4.2l-1.8-7.8c-0.9-4.2,0.2-6.6,3.2-7.4c2.4-0.5,4.1,0.4,5.3,2.7l0.1,0
					c-0.4-2.1,0.7-3.4,3.3-4.2c0.2-0.1,0.4-0.2,0.6-0.2c2.1-0.7,3.5-1.4,4.1-2l1,4.2c-1.5,0.8-3,1.4-4.7,1.8c-1.5,0.5-2.2,1.2-2,2.2
					l1,4.1L291.4,168.3z M281.2,170.6l-0.8-3.3c-0.4-1.8-1.5-2.6-3.2-2.2c-1.6,0.4-2.1,1.5-1.6,3.3l0.8,3.3L281.2,170.6z"/>
				<path class="st2" d="M270.2,156.3l-0.9-12.5l3.1-0.2l0.6,8.5l4.3-0.3l-0.5-7.9l3.1-0.2l0.5,7.9l4.9-0.3l-0.6-8.8l3.1-0.2
					l0.9,12.8L270.2,156.3z"/>
				<path class="st2" d="M288.5,130.2l-15.9,6.1l0.1,0.1l15.3,1.2l-0.3,3.7l-18.5-1.4l0.5-6l15.1-5.9l-0.1-0.1l-14.5-1.1l0.3-3.7
					l18.5,1.4L288.5,130.2z"/>
				<path class="st2" d="M292.2,111.5l-0.9,3.2l-16.7,0.5l0.1,0.1l15.3,4.2l-1,3.6l-17.9-4.9l1.7-6.3l14.1-0.2l0-0.1l-11.9-7.7
					l1.7-6l17.9,4.9l-1,3.6l-15.3-4.2l-0.1,0L292.2,111.5z"/>
				<path class="st2" d="M298.1,95.8l-1.7,3.7l-16.9-7.6l1.7-3.7L298.1,95.8z"/>
				<path class="st2" d="M305.3,82.9l-17-1.9l0,0.1l13,8.1l-2,3.2l-15.8-9.7l3.1-5.1l16.2,1.7l0-0.1l-12.4-7.6l2-3.2l15.8,9.7
					L305.3,82.9z"/>
				<path class="st2" d="M314.7,44.5l8,8.4c3,3.5,2.7,7.1-1,10.7c-4,3.6-7.6,3.7-10.8,0.5l-8-8.4l2.9-2.8l7,7.3
					c1.5,1.6,2.7,2.6,3.7,2.7c1.1,0.2,2.3-0.2,3.4-1.3c1.1-1.1,1.6-2.1,1.4-3.2c-0.1-1-0.9-2.3-2.5-3.8l-7-7.3L314.7,44.5z"/>
				<path class="st2" d="M337.7,50.8l-14.7-8.7l0,0.1l8.6,12.7l-3.1,2.1l-10.4-15.4l4.9-3.3l14.1,8.2l0-0.1l-8.1-12l3.1-2.1
					l10.4,15.4L337.7,50.8z"/>
				<path class="st2" d="M349.9,44.1l-3.6,1.8l-8.2-16.6l3.6-1.8L349.9,44.1z"/>
				<path class="st2" d="M347.4,24.7l4.1-1.4l9.2,12.3l0.1,0l0-15.4l3.7-1.3l-0.7,19.8l-4.1,1.4L347.4,24.7z"/>
				<path class="st2" d="M369.5,17.9l12.4-2l0.5,3.1l-8.4,1.4l0.7,4.3l7.8-1.3l0.5,3.1l-7.8,1.3l0.8,4.8l8.7-1.4l0.5,3.1l-12.7,2.1
					L369.5,17.9z"/>
				<path class="st2" d="M391.6,33.8l-4,0.1l-0.3-18.5l8-0.1c4.2,0,6.4,1.6,6.6,4.7c0,2.4-1.3,3.9-3.8,4.6l0,0.1
					c2.1,0,3.2,1.4,3.4,4c0.1,0.3,0.1,0.5,0.1,0.6c0.2,2.2,0.6,3.7,1.1,4.4l-4.3,0.1c-0.4-1.6-0.7-3.3-0.8-5
					c-0.2-1.6-0.7-2.4-1.8-2.4l-4.2,0.1L391.6,33.8z M391.4,23.3l3.3-0.1c1.9,0,2.8-0.9,2.8-2.7c0-1.6-1-2.4-2.9-2.3l-3.3,0.1
					L391.4,23.3z"/>
				<path class="st2" d="M415.9,22c0.2-1.9-0.7-2.9-2.6-3.2c-2-0.1-3.1,0.5-3.3,2c-0.3,1.4,0.7,2.4,3.1,3c0.1,0,0.2,0.1,0.5,0.2
					c4.2,1.4,6.1,3.4,5.7,5.9c-0.6,3.8-3.5,5.5-8.7,4.9c-4.8-0.6-6.9-3-6.3-7l4,0.5c-0.3,2.1,0.6,3.4,2.7,3.8c2.4,0.3,3.8-0.4,4-1.9
					c0.2-1.3-0.9-2.3-3.2-3c-0.3-0.1-0.6-0.2-0.7-0.3c-4-1.5-5.8-3.4-5.4-5.9c0.7-3.7,3.5-5.4,8.5-5c4,0.7,5.8,2.9,5.6,6.5L415.9,22
					z"/>
				<path class="st2" d="M425.6,37.7l-3.9-1l4.6-18l3.9,1L425.6,37.7z"/>
				<path class="st2" d="M436.7,21.4l14.1,5.6l-1.1,2.9l-5.2-2.1l-5.7,14.3l-3.8-1.5l5.7-14.3l-5.2-2.1L436.7,21.4z"/>
				<path class="st2" d="M454.8,43.5l1.1-14l4.1,2.5l-1.2,9.3l7.8-5.2l3.5,2.1l-11.9,7.4l-3.1,5.1l-3.4-2.1L454.8,43.5z"/>
				<path class="st2" d="M476.1,54.8c4.7-4.2,9.2-4.3,13.2-0.2c3.8,4.2,3.5,8.6-0.9,13.1c-4.6,4.1-8.9,4.1-13,0
					C471.5,63.5,471.7,59.2,476.1,54.8z M479,57.9c-3.2,3.1-3.8,5.8-1.6,8.1c2.1,2.3,4.8,1.8,8.1-1.2c3.3-3.1,3.9-5.8,1.7-8.1
					C485.1,54.4,482.3,54.8,479,57.9z"/>
				<path class="st2" d="M483.3,76.5L498.5,66l6.8,9.9l-2.6,1.8l-4.6-6.7l-3.6,2.5l4.3,6.3l-2.6,1.8l-4.3-6.3l-6.5,4.5L483.3,76.5z"
					/>
				<path class="st2" d="M511.1,102.5c2.1-0.9,2.7-2.5,2-4.6c-0.9-2-3.5-2.3-7.6-0.9c-4,1.7-5.7,3.6-5,5.7c0.9,2.2,2.4,2.9,4.6,2.2
					l1.5,4c-3.9,1.3-6.7-0.5-8.6-5.2c-1.7-4.8,0.3-8.3,6-10.6c5.9-2,9.9-0.8,11.9,3.8c1.7,4.7,0.6,7.9-3.2,9.6L511.1,102.5z"/>
				<path class="st2" d="M501.5,113.1l18.2-3.6l0.8,3.9l-7.2,1.4l1.4,6.9l7.2-1.4l0.8,4l-18.2,3.6l-0.8-3.9l8-1.6l-1.4-7l-8,1.6
					L501.5,113.1z"/>
				<path class="st2" d="M504.9,136.3l-0.3-4l18.5-1.2l0.3,4L504.9,136.3z"/>
				<path class="st2" d="M504.5,151.6l15.9-6.2l-0.1-0.1l-15.3-1.1l0.3-3.7l18.5,1.3l-0.4,6l-15.1,6l0.1,0.1l14.5,1l-0.3,3.7
					l-18.5-1.3L504.5,151.6z"/>
				<path class="st2" d="M503.7,159.9l16.2,11.3l-1.2,4.6l-19.6,1.6l1-3.9l4.1-0.4l1.9-7.1l-3.4-2.4L503.7,159.9z M507.5,172.9
					l8.3-0.4l0-0.1l-7-4.7L507.5,172.9z"/>
			</g>
		</g>
	</g>
	<path class="st0" d="M396.5,38.3c-57.1,0-103.4,46.3-103.4,103.4c0,57.1,46.3,103.4,103.4,103.4s103.4-46.3,103.4-103.4
		C499.9,84.6,453.6,38.3,396.5,38.3z M396.5,239.1c-53.7,0-97.3-43.6-97.3-97.3c0-53.7,43.6-97.3,97.3-97.3
		c53.8,0,97.3,43.6,97.3,97.3C493.8,195.5,450.2,239.1,396.5,239.1z"/>
	<path class="st0" d="M396.5,6.2C321.6,6.2,261,66.9,261,141.7c0,74.8,60.7,135.5,135.5,135.5c74.8,0,135.5-60.7,135.5-135.5
		C532,66.9,471.3,6.2,396.5,6.2z M396.5,273.5c-72.8,0-131.8-59-131.8-131.8c0-72.8,59-131.8,131.8-131.8
		c72.8,0,131.8,59,131.8,131.8C528.3,214.5,469.3,273.5,396.5,273.5z"/>
	<path class="st0" d="M396.5,0c-78.3,0-141.7,63.5-141.7,141.7s63.5,141.7,141.7,141.7c78.3,0,141.7-63.5,141.7-141.7
		S474.8,0,396.5,0z M396.5,280.3c-76.5,0-138.6-62-138.6-138.6S320,3.2,396.5,3.2s138.6,62,138.6,138.6S473,280.3,396.5,280.3z"/>
</g>
<g>
	<path class="st3" d="M0.1,0C14.4,8.3,33.3,14.2,56,14.5c23.2,0.3,42.8-4.3,57-13.2c14.3,8.9,34.2,13.6,57.1,13.2
		c22.2-0.3,41.7-6.1,55.9-14.3c0.3,33.3-0.5,65.1-0.5,98.3c0,32.9,1.8,67.1-6.7,92.3c-4.1,12.4-10.3,22.7-17.3,32.4
		c-6.8,9.6-15.3,18-24.5,25c-9.5,7.2-20.5,12.4-31.7,18c-9.6,4.8-19.2,9.8-28.5,14.8c-1.3,0.8-2.9,1.2-3.8,2.4
		c-5.1-3.4-10.5-6.1-15.9-8.9c-5.5-2.8-11-5.6-16.4-8.5c-5.6-2.9-11.3-5.4-16.7-8.2c-5.4-2.9-10.2-6.2-15-9.8
		c-18.8-14.3-33.2-32.9-41.8-57.6c-4.4-12.7-5.6-27.4-6.4-43.1C0.1,131.8,0.5,115.2,0.5,99C0.5,65.9,0,33.5,0,0.3C0,0.2,0,0,0.1,0z
		 M107.3,11.8c-19.7,8.8-50.8,11.3-76,6.2c-7.9-1.6-15.1-3.7-21.3-6.6c-0.8-0.4-1.8-1.1-2.8-1C6.9,41,7.8,72.8,7.8,102.3
		c0,15.3-0.8,31-0.2,45.7c0.7,14.6,2.3,28.4,6.3,40.2c4,11.6,9.2,21.7,15.8,30.8c9.8,13.7,21.6,25,36.6,33.1
		c5.1,2.7,10.4,5.1,15.8,7.6c10.5,4.9,21,10,31.4,15.2c10.4-5.1,21-10.1,31.3-15.2c5.3-2.6,10.7-4.8,15.7-7.5
		c9.9-5.3,18.5-12.4,26-20.4c11.3-11.9,20.5-26.6,26-43.7c7.8-24.1,6.2-54.6,6.2-85.4c0-31.1,0.1-61.7,0.3-92.3
		c-0.9,0-1.9,0.6-2.8,1c-6.5,2.9-13.5,5.2-21.2,6.7c-18.3,3.5-40.8,3-58-0.8c-8.8-1.9-16.8-4.9-23.7-8.4
		C111.6,10,109.5,10.9,107.3,11.8z"/>
	<path class="st3" d="M115.5,21.5c9.7,1,17,6.2,21.4,13.3c0.6,0.9,1.5,2.4,1.4,3.2c-0.2,0.8-0.8,1.4-1.4,1.3
		c-0.9-0.1-1.3-1.3-1.9-2.5c-3.7-6.5-9.7-11-18.3-12.5c0.4,1.9,1.3,3.9,2,5.9c0.8,2,1.5,4.1,2.2,6.1c0.3,0.3-0.1,0.8,0,1.3
		c1.5-0.1,3.3-0.1,3,1.7c-0.3,2.2-7,0.5-9.4,1.1c-0.3,1.7-0.1,4-0.1,5.9c1.3,0.8,7.8-0.7,9,0.3c0.4,0.3,0.5,1,0.5,1.4
		c-0.3,2.4-6.8,0.4-9.4,1.1c-0.4,2,0.6,4.8-1.4,5c-1.9,0.1-1.3-2.5-1.4-4.9c-2.4-0.8-9,1.3-9.5-1c-0.7-3.3,7.1-0.9,9.4-1.9
		c0.3-1.6,0.3-4.1,0-5.8c-2.2-0.8-8.9,1.1-9.4-1.1c-0.3-1.7,1.3-1.9,2.9-1.8c0.3-0.3-0.2-0.8,0-1.2c1.6-3.9,2.9-8.1,4.5-12
		C99.2,26,92.6,32.2,89.4,41c1.1-0.1,2.9-0.7,5.1-1.1c2.4-0.4,7.2-1.5,5.8,1.9c-1.9,0.6-4.1,0.6-6.2,1c-1.9,0.4-3.8,1.1-5.4,1.7
		c-0.3,0.6-0.4,1.4-0.5,2.3c1.8-0.3,3.6-1,5.9-1.4c1.7-0.3,6.7-1.5,6.2,1.2c-0.3,1.2-1.7,1-2.8,1.1c-3.2,0.2-7.2,1.3-9.4,2.4
		c-0.1,0.4,0,1.4,0.2,1.9c1.9-0.5,3.4-0.9,5.9-1.3c1.6-0.2,5.3-1.3,5.7,0.5c0.5,2.5-3.9,1.8-6.1,2.2c-2.3,0.4-3.7,1.1-5.1,1.5
		c0.5,1.2,0.5,2.7-0.6,2.9c-2.4,0.5-2.7-5.1-2.8-7.5c-0.1-3.5,0.4-6.7,1.1-9.1c3.2-11,11.7-17.9,24.2-19.8c0.9-1.3,0.9-4,2.6-3.8
		C114.8,17.8,114.6,20.3,115.5,21.5z M114.7,27.1c-0.4-1-0.8-3.3-1.9-3.1c-2,4.2-3.4,9.1-5.2,13.7c1,0.1,2.9-0.1,4,0
		c-0.8-4,3.9-4.3,2.9,0c1,0,3,0,4.1,0C117.4,34.5,115.9,30.6,114.7,27.1z"/>
	<path class="st3" d="M56,32c0.6,0.5-0.2,1.2,0.1,1.7c1.8-0.3,4,1,4.1,1.9c0.3,1.2-1.1,2.5-0.8,4.1c2.9,1.9,3.7,6,7.1,7.5
		C68,50.1,69,54.2,68.3,58c-0.5,2.9-3.4,3.2-2.8,7c0.3,1.6,1.3,4.9,2.4,5.5c0.8,0.3,1.8-0.1,2.5,0.5c0.6,0.8,0.3,2.4-0.2,3
		c-2.4,0.4-3.2,2.9-6.1,1.9c-1.1-0.4-2.9-1.6-3.5-2.5c-0.3-0.6-0.3-1.4-0.6-2c-0.6-1.3-1.7-2.2-2.3-3.2c-1.8,0.5-7.2-0.4-6.2,2.4
		c0.4,1.3,4.6,0.6,3.3,3.9c-0.5,1.1-4.1,2.7-5.6,3c-0.5,0.1-1.3,0.2-1.7,0.1c-0.4-0.1-0.8-0.5-1.4-0.6c-1.2-0.3-2.7,0.3-4,0
		c-0.8-0.2-2.9-1.6-3.6-2.3c-0.5-0.4-1.5-1.7-1.7-2.2c-0.6-1.3-0.2-2.4-1.6-3c-0.6-0.3-1.4-0.2-2.1-0.3c-1.3-0.3-2.7-1.3-3.7-0.6
		C28.2,70,30.3,70.7,31,72c0.7,1.2,0.3,2.1,0.4,3.9c-0.4,0.6-1.3,1.6-2.4,1.9c-1.4,0.3-3.5-0.8-5.5-1.3c-1.3-0.3-3.3-0.3-3.6-1.7
		c-0.2-0.8,0.7-1.3,0.8-2.1c0.3-0.9-0.3-1.7,0.3-2.5c-0.9-1.4-0.5-3.6-0.6-6.2c-0.1-2.8-0.1-4.6,0.6-6.7c0.3-0.8,0.3-1.5,0.5-1.9
		c0.3-0.8,2.9-2.9,3.9-3.4c2.3-1.3,6.1-2.3,10.1-1.7c0.8,0.1,1.6,0.8,2.4,0.9c1.5,0.3,3.6-0.2,5.2,0c0.5-0.3,0.9-0.6,1.2-1.1
		c0.2-2.6-1.3-3.6-2-5.5c0.3-2.6-0.4-5.6,0.5-8.2c0.3-0.7,1.4-2.7,2.1-3.5c0.6-0.7,1.9-1.7,2.6-1.9c1.3-0.3,3.7,0.5,5.1,1
		C53.3,31.6,55,31.6,56,32z M49,37.5c1.2,0.3,1.7-1.2,2.2-1.9c-0.3-0.6-0.2-1.7-1-1.7C50.2,35.6,49.4,36.3,49,37.5z M44.5,36.9
		c0.2,0.2,0.5,0.2,0.8,0.2c0.3-0.8,0.4-1.7,0.8-2.3C45.1,34.5,44.4,36.1,44.5,36.9z M52.1,37.3c-1.1,0.8-3.2,1.7-2.5,3.5
		c0.1,0,0.3,0,0.3,0.1c1.3-0.4,1.8-1.9,2.8-2.8c0.8-0.8,2.4-1.2,2.3-2.9C53.4,34.8,52.9,36.6,52.1,37.3z M52.1,43
		c0,0.1,0.3,0.3,0.3,0.3c0.4,0.3,0.8-0.3,1.3-0.3c1-0.1,1.7,0.5,2.3,0.5c0.6-0.6,0.1-1.6-0.6-1.7C54.5,43.1,51.7,40.7,52.1,43z
		 M59.8,41.8c-0.6-0.1-0.8,0.6-0.8,1.1c0.1,0.8,1.6,1.8,2.4,1.7C61.1,44.1,60.4,41.9,59.8,41.8z M49.3,43.6c-1,0.4-1.5,1.3-1.8,2.4
		c0.8,0.3,0.9-0.8,1.7-0.9c0.8,0.4,0.8,1.7,1.7,2c0.3,0.3,1.3-0.2,1.3,0.3c0,0.7-1,0.7-1.7,1c-0.8,0.3-2,1.4-3.1,2.1
		c-1.9,1.1-4.5,2.5-1.6,3.8c0.3-0.3,0-0.8,0.2-1.2c0.3-0.6,2.6-2.3,2.9-2.3c0.5-0.1,1,0.3,1.5,0.2c1.3-0.2,1.5-1.3,2.6-1.9
		c0.7,0.2,1.4,0.3,2.4,0.3c1.1,0.4,0.5,2.4,1.8,2.7c0.6-0.8,0.2-1.9,0.8-2.7c-0.1-0.8-0.8-1-0.8-1.9c0.2-0.5,0.8-0.6,1.2-0.8
		c1.2,0.8,0.9,3,2,3.9c1-0.6,1.3-2.8,0.6-3.9c-0.5-0.8-2.2-1.2-2.5-1.9c-2.8,0-5,0.7-7.2,1.3C50.5,45.7,50.1,44.4,49.3,43.6z
		 M63.2,51.3c0.9-0.5,0.4-2.4-0.6-2.4C62.2,49.6,62.2,51.3,63.2,51.3z M51.8,52.4c0.3,0.7,1.3,0.5,1.4,1.2c-0.3,1.3,0.8,2,1,3.2
		c-0.8,1-1.9,0.1-2.2-0.6c-0.5,0.1-0.8,0.3-0.8,0.9c2.8,0.2,1.3,3.4-0.5,4c-0.5,0.3-1.3,0-1.9,0.2c-0.7,0.2-1.3,0.9-2,1.2
		c-1.2,0.4-2.2,0.1-2.9,0.6c-0.3,1.4-0.2,3.2,0.8,3.1s1-2.1,2-2.4c1.5,0.3,1.3-0.9,2.2-1.2c0.4-0.2,0.9,0.2,1.5,0
		c1.7-0.5,2.1-2.6,3.1-3.9c2.7,0.3,3.4-2,3.5-4c-1.5,0.3-3.4,0.5-3.6-0.8c-0.2-0.9,0.8-1.3,1-2.3C53.9,50.3,52,51.3,51.8,52.4z
		 M29.4,52.7c-0.5,0-0.4-0.7-1.1-0.5c0.1,0.9-0.8,0.9-1,1.4c0.2,0.7,1,0.7,1.2,1.3c1.9-0.1,2.4-1.4,4-1.7
		C32.3,51,30.6,52.1,29.4,52.7z M35.3,51.9c-0.4,0.7,0.1,1.9,0.7,2.2C37.2,53.6,36.7,51.7,35.3,51.9z M41.5,56.9
		c0.5-0.6,0.3-2.2-0.6-2.2C40.6,55.2,40.4,57.1,41.5,56.9z M22.1,58.1c0.8,0.4,2.5,0.6,3.1-0.2c-0.4-0.8-0.4-1.5-0.3-2.3
		C23.7,56.2,22.5,56.8,22.1,58.1z M42.1,58.6c1,0.2,2.9,0.4,3.2-0.6C44.8,56.9,42,57,42.1,58.6z M28.5,61c-0.5,0.1-0.3-0.7-0.8-0.6
		c-0.7,0-0.7,0.8-1.3,0.8C26,61.2,25.9,61,25.4,61c-0.3,0.3-0.7,0.3-0.6,0.9c0.6-0.3,0.8-0.2,1.3,0.2c0.2-0.3,0.2-0.7,0.6-0.7
		c-0.1,1.8-1.2,3.6-3.3,3.8c-0.2,0.9-0.8,1.4-1.4,1.9c-0.5,2.2,0.2,4.3,2.3,4.3c0.2-0.4,0.1-1,0.2-1.6c-0.6-0.6-1.2-1.2-0.9-2.6
		c0.3-0.3,0.8-0.5,1.4-0.5c0.9-0.8,1.7-1.9,2.3-3.1c-0.4-1.3,1-2.3,1.6-1.2c0,0.3-0.4,1,0.3,0.9c0.5-0.2,0-0.5,0-0.8
		c0.6-0.8,1.9-0.8,2.3-1.9C30.5,59.2,29.5,60.6,28.5,61z M22.7,63.2c0.7-0.6,0.9-1.9,0.5-2.8C22,60.4,21.7,62.7,22.7,63.2z
		 M38.2,63.5c0.1,0.4,1,0.3,1.3,0.2c0-0.2,0.1-0.3,0.2-0.3c-0.2-0.3-0.5-0.5-0.8-0.6C38.9,63.3,38.2,63,38.2,63.5z M48.5,65
		c-0.5,0.3-0.9,0.3-1.2,0.8c-0.2,0.8,0.3,2.3-0.4,2.5c-1.2-0.8-2-0.2-2.8,0.6c-0.6-0.1-0.8-0.7-1.7-0.5c-0.1,0.4-0.4,1.9,0.3,1.9
		c0.7-0.2-0.3-1.3,0.5-1.3c0.3,0.6,0.6,0.9,0.9,1.3c-0.1,0.9-0.3,2.7,0.2,3.4c1.4-0.4,0.1-3.6,1.9-3.8c0.6,0.3,0.4,1.4,0.5,2.3
		c0.5,0.3,1.2,1,2,1.1c1,0.1,2.8-0.3,3.1-0.9c-0.6-0.5-1.7-0.5-2.2-1.1c-0.2-0.2-0.2-0.6-0.2-0.9c-1.2-0.8-1.8-2.8-1.2-4.6
		c0.2-0.6,1.3-1.4,0.3-2.1C48.4,64.1,48.5,64.6,48.5,65z M26,72c0,0.1,0,0.3,0,0.3c1.1-0.1,1.3,1.2,2.2,0.8
		C27.9,72.4,26.9,71.8,26,72z"/>
	<path class="st3" d="M198.9,68.5c-1.2-0.8-2.7,0.3-3.9,0.6c-1.4,0.3-2.8,0.3-3.4,1.6c-0.3,0.6-0.2,1.3-0.3,1.8
		c-1,2.4-3.3,2.9-5.1,4.5c-1.2,0.3-2.6-0.3-4.1,0c-1,0.2-1.4,0.8-3,0.5c-2.3-0.4-5.3-1.9-5.8-3.1c-0.9-2.4,1.7-2.8,3.3-3.5
		c0.4-2.4-1.3-2-3.4-2.3c-1-0.2-2.1-0.5-2.7-0.4c-0.5,0.2-2,2-2.5,3.2c-0.3,0.6-0.3,1.3-0.5,1.9c-0.8,1.4-3.5,2.9-5.1,2.9
		c-2-0.1-2.4-1.9-4.6-2.1c-0.5-1-0.7-2.4,0-3c0.6-0.5,2.1-0.3,2.8-0.8c0.8-0.6,2.7-5.4,2-7.8c-0.4-1.5-2.4-2.8-2.7-4
		c-0.1-0.4-0.2-1.4-0.2-2.1c0-2.9,0.1-6.9,1.9-9c0.8-0.9,2-1.3,2.9-2.3c1.6-1.8,1.9-4.6,4.2-5.1c-0.1-1.7-0.5-2.9-0.8-4.3
		c0.9-1.1,1.9-2.2,4.1-1.9c0.4-0.5-0.5-1.2,0.1-1.7c0.9-0.3,2.7-0.4,3.4,0.2c1.3-0.5,2.7-0.8,4.1-1c2.5-0.4,3.9,2.1,4.8,3.8
		c0.7,1.2,1.3,1.9,1.4,3.7c0.1,0.8,0,1.9,0,3c0,0.9,0.1,2.1,0,2.8c-0.4,2.4-3.9,5.1-0.8,6.7c1.6-0.2,3.5,0.3,5.1,0
		c0.9-0.2,1.8-0.8,2.3-0.9c1.9-0.3,4-0.2,5.5,0c3.5,0.5,6.3,2.8,8.6,4.8c0.1,1.4,1.1,2.6,1.3,4.2c0.3,2.5,0.3,6.5-0.1,8.9
		c-0.2,1.3-0.7,2.4-0.3,4.2c0.2,0.8,0.9,1.3,0.8,1.9c-0.1,1.6-2.1,1.6-3.9,2c-3,0.8-6.2,2.4-7.6-0.7c0.1-1.8-0.2-2.7,0.5-3.9
		C198.1,70.5,199.9,70.2,198.9,68.5z M179.4,37.5c0.1-0.8-0.8-0.9-1.1-1.7c-0.3-0.7,0.3-1.5-0.4-2.1
		C176.4,34.8,177.7,37.8,179.4,37.5z M182.9,37.1c0.4,0.1,0.8-0.1,0.9-0.3c-0.2-1.1-0.6-1.9-1.5-2.2
		C182.1,35.4,182.9,36.2,182.9,37.1z M173.4,35.4c0.1,2,1.9,2.2,2.9,3.3c0.8,0.9,1.1,2.1,2.2,2.3c1.3-1.5-1.1-3.2-2.4-3.7
		C175.5,36.4,174.8,35,173.4,35.4z M169.4,42.6c0-0.3-0.4-0.9-0.9-0.8c-0.5,0.1-1.5,2.5-1.5,2.8C167.9,44.7,169.5,43.4,169.4,42.6z
		 M174.4,42.3c-0.6,0.1-1.2-0.6-1.7-0.5c-0.5,0.2-1.2,1.5-0.3,1.7c0.5-0.3,2.5-0.8,3.3,0c0.8-0.5,0.4-1.3-0.3-1.7
		C175,41.8,175,42.2,174.4,42.3z M179.2,43.6c-1.2,0.5-1.3,2.2-2.4,2.8c-2-0.8-4.3-1.3-7.1-1.3c-0.3,0.8-2.4,1.2-2.6,2.3
		c-0.3,1.2,0,2.7,0.6,3.5c1.4-0.6,1.6-5.7,3.5-2.9c-0.2,0.7-0.8,1.1-0.8,1.9c0.8,0.5,0.3,1.7,0.8,2.5c1.5,0,0.8-2.1,1.9-2.5
		c0.8-0.2,1.8-0.2,2.5-0.4c1.2,0.8,2,2.4,4,1.6c1.1,1.1,3.1,1.5,2.9,3.5c0.9,0,1.5-1,1.4-1.5c-0.1-1.2-2.5-2.1-3.7-2.8
		c-0.7-0.4-1.3-1-1.9-1.3c-0.8-0.4-1.9-0.3-2-1.2c0.1-0.4,0.8-0.2,1.2-0.2c0.9-0.4,0.9-1.8,1.9-2.2c0.6,0.1,0.9,1.2,1.5,0.9
		C180.7,45.2,180,44.1,179.2,43.6z M164.6,50.7c0.8,1.5,1.8-0.7,1.2-1.8C164.8,49,164.7,49.9,164.6,50.7z M173.7,51.6
		c0.3,0.8,1,1.3,1,2.4c-0.5,1.3-2.5,0.8-3.7,0.8c0.3,1.7,0.6,4.3,3.5,3.8c0.9,1.4,1.7,3,3.2,4c2.1-0.8,1.9,1.3,3.7,1.2
		c1.1,0.3,1,2.4,2,2.4c1.2,0.1,1.3-2.1,0.8-3.3c-1-0.4-1.9-0.1-3-0.5c-0.5-0.2-0.9-0.9-1.4-1.1c-0.8-0.3-1.7,0.1-2.4-0.3
		c-1-0.4-1.9-1.9-1.9-3.3c0.3-0.6,1.3-0.3,1.5-1c-0.1-0.4-0.3-0.6-0.8-0.7c-0.4,0.7-1.6,1.7-2.3,0.5c0.5-1,1.3-1.6,1.1-3.3
		c0.3-0.4,1.2-0.3,1.3-0.9C176.4,51.2,174.3,50.5,173.7,51.6z M195.6,53.2c1.6,0.3,2.3,1.7,4.1,1.8c0.2-0.6,1.2-0.6,1.3-1.3
		c-0.3-0.5-1.2-0.5-1.1-1.4c-0.8-0.2-0.5,0.6-1.2,0.5C197.6,51.9,196.1,51.2,195.6,53.2z M192.4,54.1c0.5-0.4,1.1-1.3,0.8-2.2
		C191.5,51.7,191,53.8,192.4,54.1z M187.1,54.7c-0.5,0.3-0.9,1.6-0.3,2.2C187.9,57.1,188,54.9,187.1,54.7z M203,58.1
		c0.8,0.5,2.2,0.3,3.2,0.1c-0.3-1.4-1.5-2-2.8-2.5C203.4,56.5,203.3,57.2,203,58.1z M183,58.3c0.4,0.7,2.2,0.6,3,0.3
		C186.4,56.9,183.1,56.8,183,58.3z M196.8,60.8c0.6,0.8,1.7,1,2.3,1.7c-0.1,0.3-0.3,0.6,0,0.8c0.8-0.1,0.3-0.6,0.3-1.1
		c1.9-1.3,1.6,1.9,2.4,3c0.5,0.8,1.2,0.8,1.5,1.4c0.4,0.1,0.9,0.2,1.3,0.3c1,1.9-1.7,2.7-0.6,4.5c2.7,0.3,3.1-4.5,1.1-5.2
		c0-0.4-0.2-0.6-0.3-0.8c-2-0.3-3.5-2.4-3.3-4c0.4,0.9,1.2,0.2,1.9,0.6c-0.1-0.5-0.4-0.8-0.8-0.9c-0.3,0-0.5,0.3-0.8,0.3
		c-0.3-0.3-0.5-0.7-1.1-0.8c-0.5,0-0.4,0.7-1.1,0.6C198.9,60.3,197.5,59.3,196.8,60.8z M205.8,63.1c0.7-0.7,0.4-2.6-0.6-2.7
		C204.6,61.2,204.8,62.8,205.8,63.1z M188.8,63.5c0.3,0.3,0.8,0.3,1.3,0.3c0-0.2,0-0.3,0.2-0.4C189.8,63.1,188.8,62.4,188.8,63.5z
		 M180.2,66.1c-0.3,1.2,0,2.1-0.2,3.4c-0.6,0.6-1.3,1-1.2,2c-0.6,0.6-1.9,0.5-2.3,1.3c1.5,0.8,4.2,0.9,5.2-0.4
		c0.2-0.8-0.2-2.2,0.8-2.3c1.5,0.3,0.2,3.5,1.7,3.8c0.4-0.8,0.3-2.7,0-3.4c0.6-0.3,0.6-1.2,1.3-1.3c0.1,0.4-0.3,1.3,0.3,1.3
		c0.5-0.3,0.4-1.5,0.2-1.9c-1-0.3-1,0.5-1.9,0.5c-0.4-1.2-1.7-1.3-2.8-0.6c-0.4-0.8-0.2-1.5-0.3-2.6c-0.9-0.3-1.2-1.3-1.5-1.9
		C179.1,64.9,179.8,65.6,180.2,66.1z M200.2,73.3c0.8-0.3,1.5-0.8,2.1-1.2C201.6,71.6,200.2,72.3,200.2,73.3z"/>
	<path class="st3" d="M136.8,41.3c0.8-0.1,0.9-0.9,1.9-0.8c1.5,0.1,1.9,4.2,2,6.2c0.3,3.6-0.1,13.2-3.6,10c-0.1-0.8,0.1-1.3,0.3-1.9
		c-1.7-1-5.1-1.8-8.1-2c-1.5-0.1-3.6,0.1-3-1.9c0.5-1.6,4.3-0.6,5.8-0.4c2.4,0.4,3.8,0.8,5.6,1.3c0.4-0.3,0.2-1.3,0.3-1.9
		c-1.4-1-6.2-2.3-9.3-2.5c-1.5-0.1-3,0.1-3-1.4c0-0.7,0.5-0.9,1-1.3c4.4,0.1,7.8,0.9,11.1,2c0.9-3-3.1-3.5-5.3-4
		c-2.3-0.5-4.6-0.6-6.2-0.8c-1-0.5-0.9-2.5,0.6-2.5C129.7,39.4,135,40.4,136.8,41.3z"/>
	<path class="st3" d="M118.4,75.7c-2.7-3.5,5.9-3.1,7-5c-1.2-0.6-2.9-0.9-4.5-1.1c-1.6-0.3-3.3-0.4-4.8-0.4c0.1,2.4,1.2,6.6-1.4,7.2
		c-1.9,0.5-7.5-0.1-7.8-1.3c-0.6-2.9,4.3-1,6.5-1.3c0.6-1.3,0.1-3.5-0.3-4.6c-4.3-0.3-8.5,0.5-12,1.3c1.1,1.7,4.2,1.3,4.5,2.9
		c0.6,3.6-5.6-0.1-6.5-0.6c-3.4-1.9-5.9-4.2-8.3-7.5c-0.9-1.3-2.9-3.7-2.8-5.1c0.2-1.3,2.9-2,4.8-2.5c10.9-2.9,23.4-4,35.5-1.6
		c1.6,0.3,3.5,0.9,5.4,1.6c1.6,0.5,4.6,1.2,4.7,2.3c0.3,1.5-2.5,5.1-3.2,5.9c-2.8,3.7-5.6,6-9.9,7.9C123.3,74.7,121,75.7,118.4,75.7
		z M91.2,61c1.6,3.1,4,5.5,6.6,7.6c1.8-0.6,3.6-1.2,5.7-1.4c-0.8-0.8-1.9-1.2-2.9-2c-0.8-0.6-2.4-1.5-2.3-2.8c0.1-1.3,2.9-2,4.8-2.4
		c6.3-1.4,13.8-1.3,19.8,0.1c1.9,0.4,5.1,0.9,5.1,2.4c0,0.8-1.4,2.1-2.2,2.6c-1,0.8-2.2,0.9-2.9,2c2.3,0.2,4,0.8,5.8,1.4
		c2.7-1.9,4.8-4.5,6.2-7.6C123.4,56.2,102.9,56.5,91.2,61z M102.5,63.1c4.7,4.1,16.2,4.1,20.9,0C117.9,61.3,108.2,61.3,102.5,63.1z"
		/>
	<path class="st3" d="M32.8,146.6c0-0.3-0.1-0.6-0.3-1.1c-0.2-0.5-0.3-0.8-0.4-0.9c-0.2-0.3-0.6-0.5-1.2-0.6
		c-0.6-0.1-1.3-0.2-2.2-0.2H15.9v-1.1l14.3-10.6h-9.1c-1,0-1.8,0.1-2.3,0.2c-0.6,0.1-0.9,0.3-1.2,0.6c-0.2,0.2-0.3,0.6-0.5,1.2
		c-0.2,0.6-0.3,0.9-0.3,1.2h-0.8v-7.2h0.8c0.1,0.3,0.1,0.6,0.3,1.1c0.2,0.5,0.3,0.8,0.3,1c0.3,0.3,0.6,0.5,1,0.6
		c0.5,0.1,1.3,0.2,2.4,0.2h8.6c0.3,0,0.8-0.1,1.1-0.3c0.4-0.2,0.7-0.3,0.9-0.5c0.3-0.3,0.5-0.8,0.7-1.2c0.2-0.5,0.3-0.9,0.3-1.3h0.8
		v5.1l-13.2,9.7h8.3c1,0,1.9,0,2.4-0.2c0.6-0.1,0.9-0.3,1.1-0.6c0.2-0.3,0.3-0.6,0.4-1.1c0.2-0.5,0.3-0.9,0.3-1.2h0.8v7.2H32.8
		L32.8,146.6z"/>
	<path class="st3" d="M17.5,166.6l-0.8-7.2l0.8-0.1c0.1,0.6,0.3,1.2,0.4,1.6s0.3,0.6,0.5,0.6c0.1,0,0.2,0,0.3-0.1
		c0.1,0,0.2-0.1,0.3-0.1l3.8-1.9l-0.6-6.2c-0.6-0.2-1.1-0.3-1.5-0.4c-0.4-0.1-0.8-0.3-1.2-0.3c-0.4-0.1-0.7-0.1-0.9-0.2
		c-0.3,0-0.4,0-0.5,0c-0.3,0.1-0.5,0.3-0.7,0.8c-0.1,0.5-0.2,1.1-0.2,1.8l-0.8,0.1l-0.7-6.6l0.8-0.1c0.1,0.2,0.1,0.5,0.3,0.8
		c0.1,0.3,0.3,0.5,0.4,0.8c0.3,0.3,0.5,0.5,0.8,0.8c0.3,0.2,0.6,0.3,1.1,0.4c2.3,0.7,4.8,1.3,7.7,2.2c2.9,0.8,5.3,1.4,7.6,2.1
		l0.1,0.9L20,163.8c-0.3,0.1-0.6,0.3-0.8,0.5c-0.2,0.2-0.3,0.4-0.5,0.8c-0.1,0.2-0.2,0.4-0.2,0.8c-0.1,0.3-0.1,0.6-0.1,0.8
		L17.5,166.6z M23.9,158.9l6.5-3.3l-7-1.9L23.9,158.9z"/>
	<path class="st3" d="M38.3,184.9c-0.1-0.2-0.2-0.6-0.4-1c-0.3-0.4-0.4-0.8-0.6-0.9c-0.3-0.3-0.7-0.3-1.3-0.3s-1.3,0.2-2.2,0.3
		l-12.6,2.8l-0.3-1l11.7-13.5l-8.8,1.9c-1,0.2-1.7,0.4-2.2,0.7c-0.5,0.3-0.8,0.5-1,0.8c-0.2,0.3-0.3,0.7-0.3,1.3
		c-0.1,0.7-0.1,1,0,1.2l-0.8,0.3l-1.6-7l0.8-0.2c0.1,0.3,0.3,0.6,0.5,1c0.3,0.5,0.4,0.8,0.6,0.8c0.3,0.3,0.7,0.3,1.2,0.3
		c0.5,0,1.3-0.1,2.4-0.3l8.4-1.9c0.4-0.1,0.8-0.3,1.1-0.4c0.3-0.3,0.6-0.5,0.7-0.7c0.3-0.3,0.3-0.8,0.4-1.3c0.1-0.6,0.1-1,0-1.3
		l0.8-0.2l1.1,4.9l-10.9,12.5l8.1-1.9c1-0.3,1.8-0.4,2.3-0.7c0.5-0.3,0.8-0.5,0.9-0.8c0.1-0.3,0.2-0.7,0.2-1.2c0-0.5,0-0.9,0-1.2
		l0.8-0.3l1.5,7L38.3,184.9z"/>
	<path class="st3" d="M43.8,195.2c-0.2-0.2-0.3-0.4-0.5-0.7c-0.3-0.3-0.4-0.4-0.6-0.6c-0.3-0.2-0.5-0.3-0.7-0.3
		c-0.3,0-0.5,0.1-0.8,0.3l-9,5.1c-0.5,0.3-1,0.5-1.7,0.6c-0.6,0.1-1.3,0.1-1.9,0c-0.7-0.2-1.3-0.4-2-0.8c-0.6-0.4-1.1-1.1-1.5-1.8
		c-0.7-1.1-0.9-2.3-0.7-3.4c0.3-1.1,0.9-1.9,2-2.6c0.4-0.3,0.9-0.4,1.5-0.4c0.5,0.1,0.9,0.3,1.2,0.8c0.2,0.4,0.3,0.8,0.2,1.2
		c-0.1,0.4-0.3,0.8-0.7,0.9c-0.3,0.2-0.5,0.3-0.8,0.3c-0.3,0.1-0.5,0.1-0.8,0.1s-0.5,0-0.8,0c-0.3,0-0.6,0-0.8,0
		c-0.2,0.3-0.3,0.6-0.3,1.1c0,0.4,0.2,0.8,0.4,1.4c0.3,0.5,0.8,0.8,1.1,1.1c0.4,0.2,0.9,0.3,1.3,0.2c0.4-0.1,1-0.2,1.6-0.4
		s1.2-0.5,1.9-0.9l8-4.6c0.3-0.2,0.4-0.3,0.5-0.4c0.2-0.2,0.2-0.4,0.2-0.8c0-0.3-0.1-0.6-0.3-1c-0.2-0.3-0.3-0.6-0.4-0.8l0.8-0.4
		l3.9,6.7L43.8,195.2z"/>
	<path class="st3" d="M37.7,215.2l-4.8-6.2l0.7-0.5c0.2,0.2,0.4,0.4,0.7,0.8c0.3,0.3,0.5,0.5,0.7,0.6c0.3,0.2,0.5,0.2,0.7,0.2
		c0.3-0.1,0.5-0.2,0.8-0.3l10.1-7.8c0.3-0.2,0.4-0.3,0.5-0.5c0.1-0.2,0.1-0.4,0-0.8c-0.1-0.3-0.2-0.6-0.3-0.9
		c-0.2-0.3-0.3-0.6-0.4-0.8l0.7-0.5l4.8,6.2L51,205c-0.2-0.2-0.3-0.4-0.6-0.7c-0.3-0.3-0.5-0.5-0.8-0.6c-0.3-0.2-0.5-0.3-0.8-0.2
		c-0.3,0.1-0.5,0.2-0.7,0.3l-10,7.8c-0.2,0.2-0.3,0.3-0.5,0.6c-0.1,0.3-0.1,0.5-0.1,0.8c0.1,0.2,0.2,0.4,0.3,0.8
		c0.2,0.4,0.3,0.7,0.5,0.8L37.7,215.2z"/>
	<path class="st3" d="M67.7,221.4c-0.2-0.2-0.5-0.3-0.9-0.6c-0.4-0.3-0.8-0.3-1-0.4c-0.3-0.1-0.8,0.1-1.3,0.4
		c-0.4,0.4-1,0.8-1.6,1.5l-8.8,9.3l-0.8-0.8l2.2-17.7l-6.2,6.5c-0.7,0.8-1.2,1.3-1.5,1.9c-0.3,0.5-0.4,0.9-0.3,1.3
		c0,0.3,0.2,0.7,0.5,1.2c0.3,0.5,0.5,0.8,0.7,1l-0.6,0.6l-5.2-5l0.6-0.6c0.2,0.2,0.5,0.3,0.9,0.6c0.5,0.3,0.8,0.4,1,0.4
		c0.4,0,0.8-0.1,1.2-0.4c0.4-0.3,1-0.8,1.8-1.6l6-6.2c0.3-0.3,0.4-0.6,0.6-0.9c0.2-0.3,0.3-0.7,0.2-1c0-0.4-0.2-0.8-0.4-1.3
		c-0.3-0.5-0.4-0.8-0.7-1.1l0.6-0.6l3.6,3.5l-2,16.4l5.7-6c0.7-0.8,1.2-1.3,1.5-1.9c0.3-0.5,0.3-0.9,0.3-1.2
		c-0.1-0.3-0.3-0.7-0.5-1.1c-0.3-0.4-0.5-0.8-0.7-1l0.6-0.6l5.1,4.9L67.7,221.4z"/>
	<path class="st3" d="M77.7,239.5c-0.2-0.1-0.4-0.2-0.8-0.3c-0.3-0.2-0.6-0.3-0.8-0.3c-0.3,0-0.5,0-0.8,0.2
		c-0.2,0.1-0.3,0.3-0.6,0.6l-0.8,1.1c-0.5,0.8-0.9,1.3-1.1,1.7s-0.3,0.5-0.4,0.7c-1.2-0.2-2.4-0.5-3.4-0.8c-1-0.4-2-0.8-2.9-1.4
		c-0.9-0.7-1.7-1.4-2.3-2.4c-0.7-0.9-1-1.9-1.3-2.9c-0.2-1.2-0.2-2.3,0.1-3.5c0.3-1.2,0.7-2.4,1.5-3.5c0.7-1.1,1.6-2,2.6-2.7
		c1-0.7,2.1-1.2,3.2-1.4c1.1-0.3,2.3-0.3,3.4,0c1.2,0.3,2.3,0.7,3.3,1.3c0.8,0.6,1.5,1.2,1.9,1.8c0.4,0.6,0.8,1.2,1.1,1.8l0.8-0.4
		l0.8,0.6l-3.4,5.1l-0.8-0.6c0.3-0.7,0.4-1.3,0.5-2c0.2-0.7,0.3-1.3,0.2-2s-0.3-1.3-0.5-1.9s-0.8-1.1-1.4-1.5
		c-0.8-0.5-1.5-0.8-2.3-0.8s-1.6,0-2.4,0.3c-0.8,0.3-1.6,0.8-2.4,1.5c-0.8,0.7-1.6,1.5-2.3,2.5c-0.6,0.9-1.1,1.9-1.4,2.9
		c-0.3,0.9-0.5,1.9-0.5,2.8c0,0.8,0.3,1.8,0.6,2.5c0.4,0.8,1,1.4,1.8,1.9c0.6,0.4,1.2,0.7,1.9,0.8c0.6,0.2,1.1,0.3,1.4,0.2
		c0.3-0.3,0.6-0.6,0.8-1c0.3-0.3,0.5-0.7,0.6-0.9l0.5-0.8c0.3-0.3,0.3-0.6,0.4-0.8c0.1-0.3,0.1-0.6-0.2-0.8
		c-0.2-0.3-0.4-0.6-0.8-0.8c-0.4-0.3-0.7-0.6-0.8-0.7l0.5-0.8l6.4,4.3L77.7,239.5z"/>
	<path class="st3" d="M121.6,242.3c-0.3,0-0.5,0.1-1,0.2c-0.4,0.1-0.8,0.2-1.1,0.4c-0.3,0.2-0.5,0.6-0.6,1.2
		c-0.1,0.6-0.2,1.3-0.2,2.2v7.6c0,0.9-0.2,1.8-0.6,2.5c-0.4,0.8-0.9,1.3-1.6,1.8c-0.6,0.4-1.3,0.8-2.1,0.9c-0.7,0.3-1.3,0.3-2,0.3
		c-1,0-2-0.2-2.8-0.4c-0.8-0.3-1.5-0.7-2.1-1.1c-0.5-0.5-0.9-1-1.2-1.6c-0.3-0.6-0.4-1.3-0.4-1.9v-10.3c0-0.3-0.1-0.6-0.2-0.8
		c-0.1-0.2-0.3-0.4-0.6-0.5c-0.2-0.2-0.4-0.3-0.8-0.3c-0.3-0.1-0.6-0.1-0.8-0.1v-0.9h7.2v0.9c-0.3,0-0.5,0-0.8,0.1
		c-0.3,0.1-0.6,0.2-0.8,0.2c-0.3,0.1-0.5,0.3-0.6,0.5c-0.1,0.3-0.2,0.5-0.2,0.8v9.6c0,0.4,0.1,0.9,0.2,1.4c0.1,0.5,0.3,1,0.6,1.4
		c0.3,0.4,0.8,0.8,1.3,1.1c0.6,0.3,1.3,0.5,2.3,0.5c0.9,0,1.7-0.2,2.3-0.5c0.6-0.3,1.1-0.6,1.4-1.1c0.3-0.4,0.6-0.9,0.8-1.4
		c0.1-0.5,0.2-0.9,0.2-1.4v-7.2c0-0.9-0.1-1.7-0.2-2.3c-0.2-0.6-0.3-0.9-0.6-1.2c-0.3-0.2-0.8-0.3-1.2-0.5c-0.5-0.1-0.9-0.2-1.2-0.2
		v-0.9h7.2L121.6,242.3L121.6,242.3z"/>
	<path class="st3" d="M141.9,233.4c-0.2,0.2-0.5,0.3-0.8,0.6c-0.4,0.3-0.7,0.6-0.8,0.8c-0.2,0.3-0.2,0.8-0.1,1.3
		c0.1,0.6,0.3,1.3,0.7,2.1l5.1,11.7l-1,0.5l-15.4-8.9l3.6,8.3c0.4,0.9,0.8,1.6,1.1,2c0.3,0.5,0.7,0.8,1,0.8c0.3,0.1,0.7,0.1,1.3,0
		c0.6-0.1,1-0.2,1.2-0.3l0.3,0.8l-6.6,2.9l-0.3-0.8c0.3-0.1,0.5-0.3,0.9-0.7s0.7-0.6,0.8-0.7c0.2-0.3,0.2-0.8,0.1-1.3
		c-0.1-0.5-0.3-1.2-0.8-2.3l-3.5-7.9c-0.2-0.3-0.3-0.7-0.6-0.9c-0.3-0.3-0.5-0.5-0.8-0.6c-0.3-0.1-0.8-0.2-1.3-0.2
		c-0.6,0.1-1,0.1-1.3,0.3l-0.3-0.8l4.6-2l14.3,8.3l-3.3-7.7c-0.4-0.9-0.8-1.6-1.1-2.1c-0.3-0.5-0.7-0.8-0.9-0.8
		c-0.3-0.1-0.7-0.1-1.2,0c-0.5,0.1-0.9,0.2-1.2,0.3l-0.3-0.8l6.5-2.8L141.9,233.4z"/>
	<path class="st3" d="M159.4,243.6l-7.1,3.5l-0.4-0.8c0.2-0.1,0.5-0.3,0.8-0.5c0.3-0.3,0.6-0.4,0.7-0.5c0.2-0.3,0.3-0.5,0.3-0.7
		c0-0.3,0-0.5-0.2-0.8l-5.6-11.4c-0.1-0.3-0.3-0.5-0.4-0.6c-0.2-0.1-0.4-0.2-0.8-0.2c-0.3,0-0.6,0.1-0.9,0.2
		c-0.4,0.1-0.7,0.2-0.9,0.3l-0.4-0.8l7.1-3.5l0.4,0.8c-0.3,0.1-0.5,0.3-0.8,0.5c-0.3,0.2-0.6,0.4-0.8,0.6c-0.3,0.2-0.3,0.5-0.3,0.8
		c0,0.2,0.1,0.4,0.2,0.7l5.6,11.4c0.1,0.3,0.3,0.4,0.5,0.6c0.2,0.2,0.4,0.2,0.8,0.2c0.2,0,0.5-0.1,0.8-0.2c0.3-0.1,0.7-0.2,0.9-0.3
		L159.4,243.6z"/>
	<path class="st3" d="M168,216.1c-0.2,0.2-0.3,0.4-0.5,0.6c-0.2,0.3-0.3,0.5-0.3,0.8c-0.1,0.3-0.2,0.6-0.1,0.9
		c0.1,0.3,0.1,0.7,0.2,1c0.4,1.4,1,3.5,1.9,6.3c0.9,2.9,1.8,5.8,2.7,8.9l-0.8,0.6c-2.9-1.7-5.7-3.4-8.4-5.1
		c-2.7-1.6-4.6-2.7-5.5-3.3c-0.3-0.1-0.5-0.3-0.8-0.3c-0.3,0-0.5,0-0.8,0c-0.3,0.1-0.5,0.1-0.8,0.3c-0.3,0.1-0.5,0.3-0.7,0.3
		l-0.6-0.7l5.6-4.5l0.6,0.7c-0.5,0.4-0.8,0.8-1.1,1.1c-0.3,0.3-0.3,0.6-0.2,0.8c0.1,0.1,0.2,0.2,0.3,0.3c0.1,0.1,0.2,0.2,0.3,0.2
		c0.8,0.4,1.9,1.1,3.6,2.1c1.7,1.1,4,2.4,7.2,4.3c-0.5-1.6-1-3.5-1.7-5.6c-0.7-2.1-1.2-3.5-1.4-4.4c-0.3-0.8-0.4-1.3-0.6-1.5
		c-0.2-0.3-0.3-0.5-0.4-0.6c-0.1-0.2-0.3-0.3-0.5-0.2c-0.3,0-0.4,0.1-0.8,0.2c-0.3,0.1-0.5,0.3-0.8,0.4c-0.3,0.2-0.4,0.3-0.7,0.4
		l-0.6-0.7l5.1-4L168,216.1z"/>
	<path class="st3" d="M187.6,210.4l3.7,3.5l-9.3,11.1l-0.7-0.5c0.2-0.2,0.3-0.5,0.6-0.8c0.2-0.3,0.3-0.6,0.3-0.8
		c0.1-0.3,0.1-0.5,0-0.7c-0.1-0.3-0.3-0.4-0.5-0.6l-9.7-8.1c-0.2-0.2-0.4-0.3-0.7-0.3c-0.2-0.1-0.4-0.1-0.8,0.1
		c-0.3,0.1-0.4,0.3-0.8,0.5c-0.3,0.3-0.5,0.4-0.8,0.6l-0.7-0.5l8.7-10.4l3.2,2.7l-0.6,0.7c-0.6-0.3-1.3-0.4-2.2-0.4
		c-0.9,0-1.5,0.2-1.9,0.4c-0.2,0.2-0.4,0.4-0.7,0.6c-0.3,0.3-0.5,0.6-0.8,0.9l-1.7,2.1l5.3,4.5l1.3-1.5c0.4-0.5,0.7-0.8,0.8-1.2
		s0.1-0.7,0-0.9c-0.1-0.3-0.2-0.6-0.4-1c-0.3-0.3-0.4-0.7-0.7-0.9l0.6-0.7l5.2,4.4l-0.6,0.7c-0.3-0.2-0.8-0.4-1.2-0.6
		c-0.4-0.2-0.8-0.3-1-0.3c-0.4,0-0.8,0.1-1,0.3c-0.3,0.2-0.6,0.5-0.9,0.9l-1.3,1.5l4,3.4c0.4,0.3,0.7,0.6,1,0.8
		c0.3,0.2,0.6,0.2,0.8,0.2c0.3-0.1,0.5-0.3,0.8-0.5c0.3-0.3,0.6-0.7,1-1.2c0.2-0.2,0.4-0.4,0.7-0.8c0.3-0.3,0.5-0.6,0.7-0.8
		c0.2-0.3,0.3-0.6,0.5-0.9c0.2-0.3,0.2-0.5,0.2-0.8c0-0.6-0.3-1.3-0.6-2.1s-0.7-1.3-0.8-1.7L187.6,210.4z"/>
	<path class="st3" d="M202.1,194.1l-2.3,4c-1.9,0.2-3.6,0.3-5.1,0.5c-1.4,0.2-2.9,0.3-4.6,0.6l-0.8,1.6l4.9,2.6
		c0.3,0.2,0.5,0.3,0.7,0.3c0.3,0,0.5-0.1,0.8-0.3c0.2-0.1,0.3-0.3,0.5-0.6c0.3-0.3,0.4-0.6,0.5-0.8l0.8,0.4l-3.5,6.5l-0.8-0.4
		c0.1-0.2,0.2-0.4,0.3-0.8c0.2-0.3,0.2-0.6,0.3-0.7c0-0.3,0-0.5-0.2-0.7c-0.2-0.2-0.3-0.3-0.6-0.5l-11.1-6.1
		c-0.3-0.1-0.5-0.2-0.8-0.3c-0.3-0.1-0.5,0.1-0.8,0.3c-0.2,0.2-0.3,0.4-0.6,0.7s-0.4,0.5-0.5,0.7l-0.8-0.4l3.9-7.2
		c0.3-0.7,0.8-1.3,1.2-1.7c0.4-0.5,0.9-0.9,1.5-1.3c0.5-0.3,1.1-0.4,1.8-0.4c0.6,0,1.3,0.2,1.9,0.5c0.6,0.3,1.1,0.8,1.4,1.2
		c0.3,0.4,0.6,0.8,0.8,1.4c0.2,0.5,0.2,1,0.2,1.6c-0.1,0.5-0.2,1.2-0.3,1.8c1.4-0.2,2.6-0.4,3.6-0.5c0.9-0.2,2.1-0.3,3.5-0.5
		c0.6-0.1,1.1-0.2,1.4-0.3c0.4-0.2,0.7-0.3,0.9-0.5c0.3-0.2,0.4-0.3,0.6-0.6c0.2-0.3,0.3-0.5,0.4-0.6L202.1,194.1z M187.6,193.6
		c-0.9-0.5-1.9-0.7-2.7-0.4s-1.5,0.8-2,1.9l-1,1.9l6.7,3.5l0.8-1.4c0.5-1,0.7-2,0.4-3C189.3,194.9,188.7,194.1,187.6,193.6z"/>
	<path class="st3" d="M197.6,179.1c0.5-0.3,1-0.4,1.5-0.4c0.5-0.1,1.1,0,1.7,0.2c1.5,0.3,2.6,1.3,3.3,2.6c0.7,1.3,0.8,2.9,0.3,4.5
		c-0.2,0.7-0.5,1.5-0.9,2.2c-0.4,0.8-0.9,1.3-1.3,1.7l0.8,0.8l-0.3,1l-5.8-1.3l0.3-0.9c0.8,0,1.4-0.1,2.1-0.3
		c0.7-0.1,1.3-0.3,1.9-0.6s1.1-0.8,1.5-1.2c0.4-0.5,0.7-1.1,0.9-1.9c0.2-0.5,0.2-1.1,0.2-1.5c0-0.5-0.2-0.8-0.3-1.2
		s-0.5-0.6-0.8-0.8c-0.3-0.2-0.8-0.4-1.2-0.5c-0.7-0.2-1.3-0.2-2,0.1s-1.3,0.8-1.8,1.4c-0.3,0.5-0.8,1-1.2,1.6
		c-0.4,0.6-0.8,1.1-1.2,1.6c-0.7,0.8-1.4,1.3-2.3,1.8c-0.8,0.3-1.9,0.4-2.9,0.1c-0.7-0.2-1.2-0.5-1.7-0.9c-0.5-0.4-0.8-0.8-1.2-1.5
		c-0.3-0.6-0.5-1.2-0.6-1.9c-0.1-0.8,0-1.4,0.2-2.1c0.3-0.8,0.5-1.4,0.9-2c0.4-0.6,0.8-1.1,1.3-1.4l-0.8-0.8l0.3-1l5.6,1.3l-0.3,1
		c-0.7,0-1.3,0-2,0.1c-0.7,0.1-1.3,0.2-1.9,0.4s-1,0.6-1.4,1c-0.4,0.4-0.7,0.9-0.9,1.7c-0.2,0.8-0.1,1.5,0.3,2.1
		c0.3,0.7,0.9,1.1,1.6,1.3c0.8,0.2,1.3,0.2,1.9-0.1c0.6-0.2,1.1-0.6,1.6-1.2c0.4-0.5,0.8-1,1.2-1.5c0.3-0.5,0.7-1,1.1-1.4
		c0.3-0.4,0.7-0.8,1-1.2C196.8,179.7,197.2,179.3,197.6,179.1z"/>
	<path class="st3" d="M208,167.5l-1.1,7.8l-0.8-0.1c0-0.3,0.1-0.6,0.1-1c0.1-0.4,0-0.7,0-0.9c-0.1-0.3-0.2-0.5-0.3-0.6
		c-0.2-0.2-0.4-0.3-0.8-0.3l-12.6-1.7c-0.3,0-0.5,0-0.7,0c-0.2,0.1-0.4,0.3-0.6,0.6c-0.1,0.3-0.3,0.5-0.4,0.8
		c-0.2,0.3-0.3,0.7-0.3,0.9l-0.8-0.1l1.1-7.8l0.8,0.1c0,0.3,0,0.5,0,0.9c0,0.4,0,0.7,0.1,0.9c0.1,0.3,0.2,0.5,0.4,0.7
		c0.2,0.2,0.4,0.3,0.7,0.3l12.6,1.8c0.3,0.1,0.5,0,0.7-0.1c0.3-0.1,0.4-0.3,0.6-0.6c0.1-0.2,0.3-0.4,0.3-0.8c0.2-0.4,0.3-0.8,0.3-1
		L208,167.5z"/>
	<path class="st3" d="M196.9,146.7l-0.1,0.8c-0.3,0.1-0.7,0.2-1.1,0.4c-0.4,0.2-0.8,0.4-1.2,0.6c-0.3,0.3-0.7,0.5-1,0.8
		c-0.3,0.3-0.5,0.5-0.5,0.8c-0.1,0.3-0.1,0.6-0.2,0.9c0,0.4-0.1,0.8-0.1,1.1l-0.1,0.8l14,0.5c0.3,0,0.5,0,0.8-0.2
		c0.3-0.1,0.4-0.3,0.5-0.6c0.1-0.2,0.2-0.4,0.3-0.9c0.1-0.5,0.2-0.8,0.2-1.1h0.8L209,159l-0.8-0.1c0-0.2-0.1-0.6-0.1-1.1
		c0-0.5-0.1-0.8-0.2-1c-0.1-0.3-0.3-0.5-0.4-0.6c-0.2-0.2-0.5-0.2-0.8-0.3l-14.1-0.5v0.8c0,0.3,0,0.5,0,0.9c0,0.3,0,0.8,0,1.1
		c0,0.3,0.2,0.6,0.4,0.9c0.3,0.3,0.6,0.6,0.9,0.8s0.8,0.5,1.2,0.8c0.4,0.2,0.8,0.3,1,0.4L196,162l-4.7-0.2l0.6-15.3L196.9,146.7z"/>
	<path class="st3" d="M193.3,127.6c0,0.1,0.1,0.3,0.2,0.7c0.2,0.3,0.3,0.5,0.3,0.7c0.2,0.3,0.3,0.5,0.4,0.7c0.1,0.1,0.4,0.3,0.8,0.7
		c0.9,0.7,1.9,1.3,2.7,1.9c0.9,0.5,2.1,1.2,3.5,2c0.5,0.3,0.9,0.6,1.3,0.6c0.3,0.2,0.8,0.2,1.3,0.2l3.4,0.1c0.3,0,0.6-0.1,0.8-0.2
		c0.2-0.1,0.3-0.3,0.5-0.6c0.1-0.2,0.2-0.5,0.3-0.9c0.1-0.4,0.2-0.8,0.2-1h0.9l-0.2,8.2l-0.8-0.1c0-0.3-0.1-0.5-0.1-1
		c0-0.4-0.1-0.8-0.2-0.9c-0.1-0.3-0.3-0.5-0.5-0.6c-0.3-0.2-0.5-0.2-0.8-0.2l-4.3-0.1c-0.2-0.1-0.3,0.1-0.8,0.2
		c-0.3,0.2-0.8,0.3-1.2,0.5c-1,0.5-2,1-3.1,1.6s-2.1,1.1-2.9,1.5c-0.5,0.3-0.8,0.4-1.1,0.7c-0.3,0.2-0.4,0.4-0.7,0.7
		c-0.1,0.2-0.3,0.4-0.3,0.7c-0.1,0.3-0.2,0.5-0.2,0.8H192l0.1-7.5h0.9c0,0.8,0,1.4,0.2,1.9c0.1,0.3,0.3,0.5,0.4,0.5
		c0.1,0,0.2,0,0.3-0.1c0.2-0.1,0.3-0.2,0.5-0.2c0.3-0.1,0.5-0.3,0.8-0.4c0.3-0.2,0.6-0.3,0.8-0.4c0.8-0.4,1.5-0.8,2.2-1.2
		c0.8-0.3,1.7-0.9,2.9-1.5c-2-1.3-3.6-2.4-4.8-3c-1.1-0.7-1.9-1-2-1c-0.2,0-0.3,0.1-0.5,0.2c-0.1,0.1-0.2,0.3-0.3,0.5
		c-0.1,0.3-0.2,0.5-0.2,0.8s0,0.6-0.1,0.8h-0.9l0.2-6.1h0.8V127.6z"/>
	<g>
		<path class="st3" d="M106.3,200c-0.7,0-1.2,0.3-1.7,0.8c-0.5,0.5-0.8,1.2-0.8,2c0,0.8,0.3,1.3,0.7,1.9s1,0.7,1.7,0.7
			c0.7,0,1.2-0.3,1.7-0.7c0.4-0.5,0.7-1.2,0.7-1.9c0-0.8-0.2-1.5-0.7-1.9C107.5,200.2,107,200,106.3,200z"/>
		<path class="st3" d="M117.5,200c-0.6,0-1.2,0.3-1.6,0.8c-0.5,0.7-0.8,2-0.8,4c0,1.9,0.3,3.2,0.7,3.9c0.5,0.7,1,1,1.7,1
			c0.6,0,1.2-0.3,1.7-1c0.4-0.7,0.7-1.9,0.7-3.9s-0.3-3.3-0.7-3.9C118.6,200.3,118.1,200,117.5,200z"/>
		<path class="st3" d="M183,84.6c-46.6,0-93.3,0-139.9,0c-0.2,0-0.2,0.3-0.3,0.4c-0.2,17.9,0.1,36.5,0,54
			c-0.2,17.7,2.4,33.8,8.2,46.3c5.6,12.5,14.9,21.5,25.4,29c10.7,7.6,24.1,11.7,36.5,18c12.3-6.4,25.7-10.4,36.3-18.2
			c10.5-7.6,20.1-16.3,25.6-29c5.6-12.6,8.1-28.2,8.1-46.5C183.1,121.1,183.3,102.4,183,84.6z M75.2,164c9.5-5,19-10.4,26.5-17.5
			c-5,1.2-8.8,1.3-13,1.3c0.7-1.1,1.8-1.8,2.7-2.6c6.2-5.9,13.3-11.5,16.7-20.4c-2.3,0.8-5.2,1.4-8.3,1.4c6.2-7.8,11-17,13.5-28.4
			c0.1,0,0.3,0,0.3,0c2.5,11.4,7.4,20.5,13.5,28.4c-2.7-0.2-5.1-0.3-8.2-1.5c0.2,1.3,0.8,2.6,1.4,3.7c3,5.6,7.9,9.9,12.4,14.2
			c1.9,1.7,3.8,3.2,5.4,5.1c-5.1,0.4-7.3,0.1-12.8-1.4c1.8,2.1,4.1,3.7,6.3,5.4c5.9,4.8,13,8.4,20.1,12.2c0.6,0.3,1.4,0.5,1.7,1.3
			c-5.9,0.8-12.5,0.4-18.9-1.7c-7.8-2.7-15.2-2.9-20.6,2.3c-6.1-4.9-12.1-5-21.9-2.4c-5.6,1.8-12.8,2.5-18.7,1.8
			C73.6,164.4,74.6,164.3,75.2,164z M96.8,210.7h-1.4v-9.3c-0.3,0.4-0.8,0.7-1.4,0.9c-0.5,0.3-1,0.6-1.5,0.8v-1.3
			c0.8-0.4,1.5-0.9,2.1-1.4c0.6-0.6,1-1.1,1.3-1.6h0.9L96.8,210.7L96.8,210.7z M109.8,208.1c-0.3,0.9-0.8,1.6-1.5,2
			c-0.7,0.5-1.4,0.8-2.3,0.8c-0.9,0-1.7-0.3-2.3-0.8c-0.6-0.5-0.9-1.2-1.1-2.2l1.3-0.2c0.2,0.7,0.4,1.2,0.8,1.4
			c0.3,0.3,0.8,0.4,1.3,0.4c0.4,0,0.8-0.1,1.2-0.3c0.3-0.2,0.6-0.5,0.8-0.8c0.3-0.3,0.4-0.8,0.5-1.3c0.2-0.6,0.3-1.2,0.3-1.8
			c0-0.1,0-0.2,0-0.3c-0.3,0.5-0.7,0.9-1.2,1.2c-0.5,0.3-1.1,0.4-1.6,0.4c-1,0-1.9-0.4-2.5-1.1c-0.7-0.8-1.1-1.7-1.1-2.8
			c0-1.2,0.3-2.2,1.1-2.9c0.8-0.8,1.6-1.1,2.6-1.1c0.8,0,1.5,0.2,2.2,0.6c0.6,0.4,1.1,1,1.5,1.9c0.3,0.8,0.5,1.9,0.5,3.3
			C110.3,206,110,207.2,109.8,208.1z M120.9,208.2c-0.3,0.8-0.7,1.5-1.3,1.9c-0.6,0.5-1.3,0.8-2.2,0.8c-1.2,0-2-0.4-2.7-1.3
			c-0.8-0.9-1.2-2.6-1.2-4.8c0-1.4,0.2-2.5,0.4-3.4c0.3-0.8,0.8-1.5,1.3-1.9c0.6-0.5,1.3-0.8,2.2-0.8c0.6,0,1.2,0.1,1.7,0.3
			c0.5,0.3,0.8,0.6,1.2,1.1c0.3,0.5,0.5,1.1,0.8,1.8c0.2,0.7,0.3,1.6,0.3,2.8C121.3,206.2,121.2,207.4,120.9,208.2z M132.4,210.7
			h-7.8c0-0.3,0.1-0.8,0.2-1c0.2-0.5,0.5-1.1,1-1.6c0.4-0.5,1.1-1.1,1.9-1.9c1.3-1.1,2.1-1.9,2.6-2.5c0.4-0.6,0.7-1.2,0.7-1.8
			c0-0.6-0.3-1.1-0.7-1.4c-0.4-0.4-0.9-0.6-1.6-0.6c-0.7,0-1.3,0.3-1.7,0.7c-0.4,0.4-0.6,1-0.6,1.7l-1.5-0.2
			c0.2-1.1,0.5-1.9,1.2-2.5c0.7-0.6,1.6-0.8,2.7-0.8c1.2,0,2,0.3,2.7,0.9c0.7,0.7,1,1.4,1,2.4c0,0.4-0.1,0.9-0.3,1.4
			c-0.2,0.4-0.5,0.9-0.9,1.4c-0.4,0.5-1.2,1.2-2.3,2c-0.8,0.8-1.4,1.3-1.7,1.5s-0.4,0.5-0.6,0.8h5.8L132.4,210.7L132.4,210.7z
			 M120.3,177.6l0.3,3.1h-13.6l0.4-3.1H65l5.3-6.5c4.5-0.3,13.2-1.4,20.6-4.1c14.5-5.4,23.3,2,23.3,2c6.9-5.8,15.6-4.6,23.7-1.6
			c7.6,2.8,19.1,3.6,19.1,3.6l5,6.7L120.3,177.6L120.3,177.6z"/>
	</g>
</g>
</svg>
