<?xml version="1.0" encoding="utf-8"?>
<!-- Generator: Adobe Illustrator 21.0.0, SVG Export Plug-In . SVG Version: 6.00 Build 0)  -->
<svg version="1.1" id="图层_1" xmlns="http://www.w3.org/2000/svg" xmlns:xlink="http://www.w3.org/1999/xlink" x="0px" y="0px"
	 viewBox="0 0 92.7 92.7" style="enable-background:new 0 0 92.7 92.7;" xml:space="preserve">
<style type="text/css">
	.st0{fill-rule:evenodd;clip-rule:evenodd;fill:#971E30;}
	.st1{fill-rule:evenodd;clip-rule:evenodd;fill:#55B448;}
	.st2{fill:#971E30;}
</style>
<g>
	<g>
		<g>
			<g>
				<g>
					<path class="st0" d="M34.3,78.9c-0.2-0.1-0.4,0-0.7,0c-0.4-0.1-1.1-0.1-1.5-0.2c-0.1-0.1-0.7,0-0.8,0.2c0.2,0,0.4,0,0.6,0
						c0.1,0,0.3,0,0.6,0.1c0.3,0,0.6,0.1,0.9,0.2c0.4,0.1,0.5,0.1,0.8,0.3c0.1,0.1,0.2,0.3,0.2,0.5c0,0.3,0,0.4,0,0.6
						c-0.1,0.4-0.3,0.8-0.4,1.2c-0.1,0.4-0.3,0.9-0.4,1.1c-0.1,0.4-0.4,0.8-0.6,1.1c0,0.1-0.1,0.3-0.2,0.2c-0.2-0.2-0.6-0.6-0.6-0.8
						c-0.1-0.1,0-0.6,0-0.7c0.2-0.2,0.4-0.1,0.7-0.4c0.2-0.3,0.1-0.4,0.5-1.1c0.5-0.8,0.5-1,0.3-1.3c0,0,0-0.1-0.1-0.2
						c-0.2-0.1-0.4-0.2-0.5-0.1c0,0.4,0.1,0.5,0.2,0.7c0.1,0.2-0.3,0.6-0.5,0.9c0,0.1-0.1,0.1-0.1,0.1c0,0,0.1,0,0.1,0.1
						c0,0-0.1,0.2-0.1,0.3c-0.1,0-0.1,0-0.2-0.1c0,0,0-0.1,0.1-0.2c-0.1,0-0.1,0-0.1,0c-0.1-0.1-0.1-0.4,0-0.6c0-0.1,0-0.3,0.1-0.4
						c0-0.1,0.2-0.3,0.2-0.4c0-0.1-0.1-0.2-0.1-0.3c0-0.1,0-0.2,0-0.3c-0.1-0.1,0-0.3-0.2-0.3c-0.3-0.1-0.3,0.6-0.5,0.8
						c-0.1,0.1-0.4,0-0.6,0c-0.1,0-0.3,0-0.3,0c-0.1,0,0,0.1,0.1,0.2c0,0.1,0,0.1,0.1,0.2c0,0.1,0.1,0.1,0,0.2
						c0,0.1-0.1,0.2-0.1,0.3c0,0.1,0.2,0,0.4,0.1c0,0.1-0.5,0.3-0.5,0.3c0,0,0.1,0.1,0.2,0.1c0.2,0,0.4-0.1,0.5-0.1
						c0.1,0.2,0.1,0.3,0,0.4c-0.1,0.2-0.9,0.3-1.2,0.1c0-0.1,0.2-0.4,0.1-0.4c-0.2,0-0.3,0.2-0.5,0.2c-0.1,0-0.2,0-0.3,0
						c0.1-0.4,0.4-1.2,0.6-1.4c0.2-0.2,0.3-0.6,0.3-0.7c0-0.2,0-0.3-0.1-0.3c-0.4,0.1-0.6,0.6-1,1.1c-0.1,0.2-0.8,1.6-1,2.2
						c0,0.2,0.1,0.4,0.2,0.4c0.1,0,0.4,0,0.4-0.1c0.1-0.2,0.3-0.6,0.4-0.9c0.3,0.1,0.6,0.2,0.8,0.3c0.3,0,0.5,0,0.7,0
						c0.2,0,0.3-0.1,0.4-0.1c0.1,0,0.2,0,0.2,0.1c-0.1,0.1-0.1,0.3-0.1,0.3c-0.3,0.2-0.5,0.3-0.5,0.3c0.1,0,0.3,0,0.5,0
						c0,0,0,0.1,0,0.2c0,0.1,0,0.2-0.1,0.2c-0.1,0.1-0.2,0.1-0.2,0.1c-0.1,0-0.3-0.1-0.5-0.2c-0.2-0.1-0.3,0-0.4-0.1
						c0,0,0-0.1,0.1-0.1c0.1,0,0.2-0.1,0.2-0.2c-0.1,0-0.7,0.1-0.7,0.1c-0.1,0.3,0,0.3-0.1,0.4c-0.1,0.2-0.1,0.3-0.1,0.3
						c0,0,0.2,0.1,0.3,0.1c0.2,0,0.2,0,0.4,0c0.1,0,0.7,0.1,1,0.2c0.2,0.1,0.7,0.1,0.8,0.2c0.1,0.3,0.3,0.6,0.4,0.7
						c0,0.4,0.2,0.5,0.2,0.6c0,0.1-0.1,0.3-0.1,0.3c0,0,0.2,0.1,0.2,0.1c0.2,0,0.4-0.1,0.5-0.2c0.2-0.1,0.6-1.5,1.1-2.5
						c0.3-0.6,0.4-1.3,0.6-2c0.1-0.3,0.2-0.5,0.2-0.8c0-0.3,0-0.6-0.1-0.8C34.8,79.2,34.7,79.1,34.3,78.9z M44.6,87
						c-0.8-0.3-1.4-0.7-2.2-1.3c-0.9-0.7-1.5-1.5-1.7-1.4c-0.1,0.1,0.3,0.5,0.7,0.9c0.4,0.6,0.6,0.7,1,1c0.4,0.4,0.6,0.9,1,1.1
						c0.3,0.2,0.5,0.2,0.8,0.2c0.2,0,0.4,0,0.7,0c0.2,0,0.2-0.2,0.1-0.3C44.9,87.2,44.8,87,44.6,87z M41.5,81.9c0,0-0.1-0.1-0.1-0.1
						c0,0-0.1,0-0.2,0c-0.4,0.5-0.7,0.8-1.1,1.3c-0.4,0.4-0.6,0.8-0.9,1.2c-0.5,0.7-0.9,1.1-1.5,1.8c0,0-0.1,0.1-0.1,0.2
						c0,0.1-0.1,0.2,0,0.3c0.1,0,0.2,0,0.3,0c0.1,0,0.6-0.2,0.8-0.4c0.3-0.3,0.8-1.2,1.3-1.8c0.3-0.4,0.7-0.9,0.9-1.2
						C41.4,82.5,41.6,82,41.5,81.9z M25.7,76.2c-0.2,0.2-0.8,0.5-1.5,0.1c-0.1-0.1-0.4-0.1-0.4-0.3c0.2-0.3,0.6-0.6,0.9-0.9
						c0-0.1-0.1-0.1-0.1-0.2c0-0.1,0-0.2,0.2-0.4c0.2-0.1,0.3-0.3,0.4-0.4c0.1-0.1,0-0.3,0-0.3c-0.1-0.1-0.2-0.5-0.3-0.4
						c-0.2,0.1-0.1,0.1-0.3,0.2c-0.1,0.1-0.1,0.1-0.2,0.2c-0.1,0.2-0.4,0.4-0.5,0.4c-0.4-0.1-0.8-0.3-1.1-0.5
						c-0.1-0.1,0-0.4-0.1-0.5c0-0.1-0.1-0.3-0.2-0.3c0,0,0,0-0.1,0.1c-0.1,0.2-0.2,0.4-0.3,0.6c-0.2,0.3-0.4,0.7-0.6,1
						c0,0-0.1,0.1-0.1,0.1c0,0.1,0,0.1,0.1,0.2c0.1,0.1,0.1,0.1,0.2,0.1c0.3-0.2,0.6-0.6,0.8-0.8c0.1-0.1,0.2-0.2,0.2-0.1
						c0.1,0.1,0.3,0.2,0.4,0.3c0.1,0.1,0.3,0.2,0.3,0.3c-0.3,0.3-0.7,0.6-0.8,0.8c-0.5-0.3-0.4-0.2-0.6-0.2
						c-0.1,0.1,0.3,0.3,0.2,0.5c-0.5,0.5-1.2,1.1-1.8,1.6c-0.2,0.2-0.3,0.4-0.5,0.6c-0.1,0.2-0.3,0.4-0.4,0.6
						c-0.1,0.2-0.1,0.2,0,0.3c0,0,0,0,0.1,0c0.2,0,0.3,0,0.6-0.2c0.1-0.1,0.3-0.3,0.6-0.6c0.2-0.2,1.3-1.1,1.4-1.2
						c0.2-0.2,0.3-0.3,0.5-0.4c0.1,0,0.3,0.2,0.6,0.3c0.2,0.1,0.3,0.1,0.5,0.2c0.1,0,0.2,0,0.4,0.2c0.6,0.5,0.7,0.5,0.8,0.5
						c0.3-0.3,0.2-0.3,0.4-0.5c0.2-0.3,0.3-0.6,0.2-0.8C25.8,76.3,25.8,76.3,25.7,76.2z M25,75.5c0.3,0.3,0.5,0.5,0.7,0.7
						c0.1-0.1,0.1-0.2,0.1-0.2c-0.1-0.1-0.1-0.1-0.2-0.2c-0.4-0.3-0.8-0.8-0.9-0.7c0,0,0,0-0.1,0.1C24.8,75.2,24.9,75.3,25,75.5z
						 M64.5,83.7c-0.2,0-0.4,0.1-0.8,0c-0.5-0.1-0.8-0.3-1.6-0.7c-0.2-0.1-0.4-0.2-0.6-0.3c-0.3-0.2-0.5-0.3-0.7-0.5
						c-0.1-0.1-0.3-0.2-0.1-0.4c0.3-0.3,0.6-0.7,0.9-0.9c0.2-0.1,0.5-0.2,0.8-0.3c0,0,0.1-0.1,0.1-0.1c0-0.1,0-0.2-0.1-0.3
						c-0.2-0.1-0.2-0.1-0.3-0.1c-0.2,0-0.4,0-0.5,0.1c-0.3,0.1-0.5,0.5-0.8,0.7c-0.1,0.1-0.3,0.3-0.4,0.4c-0.1,0.1-0.2,0.1-0.2,0.1
						c-0.2-0.3-0.3-1-0.3-1.4c0,0-0.1-0.2-0.1-0.3c-0.1-0.1-0.2-0.1-0.3-0.1c-0.3-0.1-0.5-0.1-0.6,0.1c0.1,0.4,0.3,0.8,0.4,1.1
						c0.1,0.5,0.3,0.9,0.2,1.2c-0.1,0.2-0.3,0.5-0.8,0.8c-0.1,0.1-0.2,0.1-0.3,0.1c-0.1,0-0.2,0-0.2,0.1c-0.1,0.1-0.1,0.1-0.1,0.2
						c0.1,0.2,0.2,0.2,0.4,0.2c0.2,0,0.4-0.1,0.5-0.1c0.3-0.2,0.4-0.3,0.7-0.4c0.1,0,0.1,0.1,0.1,0.2c0.1,0.6,0.1,0.9,0,1.4
						c0,0.5-0.1,0.9-0.3,1.3c-0.1,0.2-0.1,0.4,0,0.4c0.1,0,0.1-0.1,0.3-0.3c0.2-0.2,0.4-0.4,0.5-0.5c0.1-0.2,0.1-0.5,0.2-1
						c0-0.3,0-0.6-0.2-1.6c0,0,0-0.1,0-0.1c0,0,0-0.1,0-0.2c0-0.1,0.1-0.2,0.2-0.3c0.4,0.4,0.6,0.7,0.8,0.9c0.1,0.1,0.3,0.2,0.5,0.3
						c0.6,0.4,1.2,0.8,1.8,1.1c0.3,0.1,0.8-0.1,1.2-0.3c0.1,0,0.2-0.2,0.2-0.2C64.9,83.9,64.9,83.8,64.5,83.7z M67.6,74.7
						c0-0.1,0-0.1,0-0.1c0,0-0.1,0.1-0.2,0.2c0,0,0,0.1,0.1,0.1C67.5,74.8,67.5,74.8,67.6,74.7z M71.7,77.7c0.2-0.1,0.4-0.2,0.4-0.2
						c0.2-0.1,0.4-0.1,0.5-0.1c0.2-0.1,0-0.3,0-0.3c-0.1,0-0.3-0.1-0.4-0.1c-0.1,0-0.4,0.3-0.7,0.5c0,0-0.1,0.1-0.1,0.1
						c-0.1,0-0.1,0.1-0.1,0c-0.1-0.1-0.2-0.2-0.2-0.3c0-0.1,0-0.3,0-0.4c0-0.2-0.2-0.3-0.3-0.4c0-0.2,0-0.2,0.1-0.4
						c0-0.1,0.2-0.2,0.3-0.3c0.1,0,0.2,0,0.3,0c0.2-0.1,0.4-0.2,0.5-0.3c0.2-0.2,0.1-0.3-0.1-0.5c-0.3-0.2-0.7-0.3-1-0.2
						c-0.2,0-0.5-0.5-0.7-1c-0.1-0.2-0.2-0.4-0.3-0.6c-0.2-0.5-0.4-0.6-0.5-0.6c-0.1,0-0.2,0.1-0.3,0.2c0,0-0.1,0.1-0.1,0.1
						c0.1,0.1,0.2,0.3,0.1,0.3c-0.1,0.1-0.3,0.3-0.3,0.5c-0.1,0.1-0.3,0.2-0.4,0.3c-0.1,0-0.1,0.1-0.1,0.1c-0.1-0.1-0.1-0.5-0.2-0.6
						c0,0,0,0,0,0c-0.1,0-0.1,0-0.1,0.1c0,0.1,0.1,0.3,0.1,0.5c0,0.2,0.1,0.5,0.1,0.5c-0.1,0.1-0.2,0.2-0.3,0.2c0,0.2,0,0.4,0,0.4
						c0,0,0,0.1-0.1,0.2c-0.1-0.1-0.3-0.4-0.3-0.5c0,0,0.1-0.1,0.2-0.1c-0.1-0.1-0.2-0.2-0.3-0.3c-0.1,0-0.3,0-0.3,0.1
						c-0.1,0.1,0.5,0.7,1,1.4c0.3,0.5,0.6,1.1,0.8,1.4c-0.1,0.4-0.3,0.6-0.4,1c-0.1,0.1-0.2,0.3-0.3,0.3c-0.1-0.1-0.2-0.1-0.3-0.2
						c-0.2,0-0.3,0-0.4,0c0,0-0.2,0.1-0.1,0.2c0.1,0.2,0.2,0.4,0.3,0.6c0,0.1,0.5,1.3,0.5,1.3c0.1,0,0.2,0.1,0.3,0.1
						c0.2-0.1,0.3-0.2,0.3-0.4c0.1-0.4-0.5-1-0.5-1.3c0.1-0.1,0.2-0.3,0.3-0.4c0.1-0.2,0.1-0.3,0.3-0.7c0.2-0.3,0.3-0.5,0.5-0.7
						c0.3-0.3,0.2-0.5,0.3-0.6c0.1-0.2,0.3-0.3,0.5-0.5c0.1-0.1,0.1-0.2,0.2-0.3c0.1-0.1,0.1-0.1,0.2-0.3c0,0,0.1-0.1,0.2-0.1
						c0.2,0,0.2,0,0.1,0.2c-0.2,0.3-0.3,0.5-0.3,0.9c0,0.1-0.1,0.1-0.2,0.3c0,0.1-0.1,0.2-0.2,0.3c-0.3,0.3-0.6,0.6-0.8,0.9
						c0,0.1,0,0.1,0.1,0.2c0.1,0.1,0.4,0,0.6-0.1c0.1-0.1,0.1-0.2,0.2-0.3c0-0.1,0.2-0.6,0.3-0.3c0.1,0.2,0.2,0.3,0.2,0.4
						c0.1,0.1,0.2,0.2,0.2,0.3c-0.1,0.2-0.2,0.4-0.3,0.6c-0.2,0.3-0.5,0.5-0.7,0.8c-0.2,0.3-0.1,0.7-0.1,0.7c0.2,0,0.5-0.3,0.7-0.7
						c0.2-0.3,0.3-0.6,0.4-0.9c0-0.1,0.2-0.2,0.3-0.1c0.2,0.2,0.1,0.4,0.2,0.5c0.1,0.2-0.2,0.4-0.6,0.6c-0.1,0.1-0.4,0.3-0.5,0.3
						c-0.1,0.1,0.3,0,0.4,0c0.2,0,0.3-0.1,0.6-0.2c0.4-0.1,0.6-0.1,0.8-0.2c0.1-0.1,0.3-0.4,0.3-0.7c-0.1-0.3-0.4-0.6-0.7-1
						C71.5,77.8,71.5,77.8,71.7,77.7C71.6,77.7,71.6,77.7,71.7,77.7z M68.5,76.5c0,0-0.1,0-0.2,0c-0.1-0.1-0.4-0.4-0.6-0.8
						c0-0.1,0.1-0.3,0.1-0.4c0-0.1,0-0.1,0.3,0c0.1,0,0.2,0.1,0.3,0.1C68.5,76.1,68.5,76.3,68.5,76.5z M68.5,75
						c-0.2,0-0.4,0-0.6-0.1c0-0.3,0-0.5,0-0.7c0.1-0.1,0.3-0.2,0.3-0.3c0.1,0,0.2,0,0.2,0.1C68.5,74.2,68.5,74.9,68.5,75z
						 M68.8,73.7c0,0,0.1-0.2,0.2-0.1c0.1,0,0.2,0.3,0.2,0.5c0,0.1-0.3,0.2-0.4,0.2C68.9,74.1,68.7,73.8,68.8,73.7z M69.4,76.1
						C69.3,76.2,69.3,76.2,69.4,76.1c-0.1,0-0.2-0.1-0.1-0.2c0,0,0.1-0.1,0.1,0.1C69.4,76.1,69.4,76.1,69.4,76.1z M69.3,75.3
						c-0.1-0.1-0.3-0.1-0.4-0.2c0-0.3,0-0.4,0-0.5c0.2-0.1,0.4-0.4,0.5-0.3c0.1,0.3,0.2,0.4,0.2,0.6C69.6,75.3,69.6,75.4,69.3,75.3z
						 M68.7,72.9C68.7,72.9,68.7,72.9,68.7,72.9c-0.1-0.1-0.1-0.1-0.1-0.1c0,0-0.5,0.4-0.7,0.6c0.1,0,0.2,0.1,0.2,0.1
						C68.3,73.2,68.5,73,68.7,72.9z M67.9,77.3c0.1,0,0.2-0.1,0.2-0.2c0-0.2-1.2-1.4-1.3-1.4c-0.1,0-0.8,0.1-0.7,0.2
						c0.1,0.2,0.3,0.2,0.5,0.4c0.5,0.4,1,0.9,1.1,1C67.7,77.4,67.8,77.4,67.9,77.3z M54.2,85.1c-0.1,0.6-0.3,1.1-0.7,1.5
						c-0.1,0.1-0.2,0.2-0.4,0.2c-0.2,0-0.3-0.2-0.5-0.4c-0.3-0.5-0.5-1-0.5-1.4c0.2-0.1,0.4-0.3,0.7-0.5c0.2-0.2,0.4-0.5,0.3-0.6
						c-0.1,0-0.1-0.1-0.6,0.1c-0.3,0.1-0.6,0.3-0.6,0.3c-0.1,0-0.2-0.2-0.3-0.3c-0.2-0.1-0.5-0.1-0.5,0c-0.1,0.2,0,0.8,0,1
						c0,0.1-0.6,0.6-0.9,0.9c-0.1,0.1-0.1-1.3-0.1-2.3c0-0.2,1.3-0.1,1.4-0.2c0.2-0.1,0.4-0.7,0.5-1c0.1-0.3,0.2-0.6,0.1-0.8
						c-0.1-0.1-0.1-0.2-0.3-0.2c-0.2,0-0.3,0.2-0.4,0.2c-0.1,0.1-0.4,0-0.6,0.1c-0.2,0.1-0.4,0.3-0.6,0.4C50,82.2,50,82.4,50,82.4
						c0.7-0.3,0.9-0.3,1-0.4c0,0,0,0.1,0,0.2c0,0.4-0.2,0.5-0.3,0.8c-0.2,0.1-0.5,0-0.7,0c-0.2,0-0.4-0.2-0.6-0.2
						c-0.1,0-0.4,0.1-0.4,0.3c-0.1,0.4,0,0.8,0.1,1.4c0,0.9,0,2,0,2.7c0,0.1,0,0.3,0.1,0.4c0.1,0,0.6,0.1,0.8-0.1
						c0.2-0.1,0.1-0.5,0.1-1.1c0-0.1,0.1-0.1,0.1-0.2c0.2-0.3,0.5-0.6,0.9-0.8c0.2,0.7,0.6,1.3,1,1.7c0.2,0.2,1,0.4,1.4,0
						c0.6-0.6,0.7-1.1,0.8-1.8c0-0.1,0-0.2,0-0.5C54.3,84.9,54.2,84.9,54.2,85.1z M32.4,81.4c0,0,0,0.1-0.1,0.1
						C32.4,81.5,32.4,81.5,32.4,81.4C32.4,81.4,32.4,81.4,32.4,81.4z"/>
				</g>
			</g>
		</g>
		<path class="st1" d="M30.3,68.7"/>
		<g>
			<g>
				<path class="st2" d="M40.2,69.4c0.4-0.2,0.8-0.4,1.2-0.7h1v4.8h-1.1v-3.7c-0.3,0.3-0.7,0.5-1.1,0.6V69.4z"/>
				<path class="st2" d="M44.6,72.3c0.1,0.4,0.2,0.6,0.5,0.6c0.5,0,0.8-0.5,0.7-1.5c-0.3,0.2-0.6,0.3-0.9,0.3
					c-0.9-0.1-1.3-0.6-1.4-1.5c0.1-1,0.6-1.5,1.7-1.6c1.2,0,1.7,0.7,1.7,2.1c0,1-0.1,1.7-0.4,2.2c-0.3,0.4-0.7,0.6-1.4,0.6
					c-1,0-1.6-0.4-1.6-1.2H44.6z M45.2,71c0.4,0,0.6-0.3,0.6-0.8c0-0.6-0.2-0.8-0.6-0.9c-0.4,0-0.7,0.3-0.7,0.9
					C44.6,70.7,44.8,71,45.2,71z"/>
				<path class="st2" d="M48.4,72.1c0,0.4,0.2,0.7,0.6,0.7c0.4,0,0.6-0.3,0.6-0.7c0-0.5-0.4-0.8-1.2-0.8v-0.7c0.8,0,1.2-0.3,1.2-0.8
					c0-0.4-0.2-0.6-0.6-0.6c-0.3,0.1-0.5,0.3-0.6,0.6h-1.1c0.1-0.9,0.6-1.3,1.6-1.3c1,0.1,1.5,0.5,1.6,1.2c0,0.6-0.3,1-0.9,1.2
					c0.6,0.2,0.9,0.6,0.9,1.3C50.6,73,50,73.4,49,73.5c-1.1,0-1.6-0.5-1.6-1.4H48.4z"/>
				<path class="st2" d="M54.3,68.7v0.9l-1.5,3.9h-1l1.5-4h-2.1v-0.8H54.3z"/>
			</g>
			<path class="st0" d="M33.6,20.7c0.6,0,1.3,0.2,1.4,0.3c0.2,0.2,0.8,0.7,0.8,1.2c0.1,2.5-1,4.1-0.5,6.7c0.6,3.3,2.2,5.8,2.9,8.8
				c2.7-0.7,6.4-4.9,6.9-7.9c0.3-1.6-0.1-3.4-0.4-4.9c-0.2-1.2-0.5-2.2-0.1-3.3c0.3-0.8,1.1-0.9,2-0.9c1.5,0.1,1.8,0.6,2.2,1.3
				c0.5,1.6-0.9,2.6-0.5,5.8c0.4,3.2,2.1,8.6,3.5,9.8c2.4-1.8,5.6-4.4,6.3-7.7c0.6-2.7-2.2-7.4-0.1-8.7c1.1-0.7,2.3-0.6,3.1,0
				c0.2,0.2,0.4,0.5,0.6,0.7c0.1,0.1,0.2,0.7,0.1,1.5c-0.1,0.7-0.4,1.4-0.6,2.3c-0.2,1.6-0.1,3.5,0.3,4.9c0.9,3.4,4.1,7,3,11.7
				c-1,4.4-4.2,5.5-5.1,12.2c-0.5,4,2.4,9.3,2,11.6c-0.1,0.6-0.3,1.2-1.1,1.5c-0.8,0.3-1.5,0-1.9-0.3c-2-1.1-3.2-8.8-2.5-13.4
				c0.6-4,1.8-6.2,4.5-10.6c1.1-2.7,1-5.6-1.2-8.7c-2.2,2.4-4.4,4.8-7.7,6.6c-0.1,4.6-4.4,7.4-5.1,12.4c-0.2,1.7,0.1,4.8,1,7.5
				c1.1,3.1,1.5,5.3,0.3,6.1c-0.8,0.4-1.3,0.4-2.2,0.1c-0.7-0.3-1.6-2.4-2.2-5.1c-0.8-4-0.9-9.3,0.5-12.7c1.5-3.8,5.5-6.4,4-11.3
				c-0.3-1.1-0.7-2.5-1.5-3.7c-0.1,0-0.2,0.1-0.3,0.1c-1.2,2.5-4.9,5.2-7.4,6.5c-0.1,4.4-4.8,7.3-5.1,12.5
				c-0.4,6.1,2.1,8.7,1.9,12.4c-0.1,0.6-0.3,1.1-1,1.4c-0.6,0.2-1.1,0.2-1.8,0c-2.2-0.8-4.6-11.3-1.1-19.6c0.9-2.3,2.9-3.8,3.6-6.5
				c0.6-2.7-1.8-7-1.8-7s-5.8,7.2-9,6.9c-0.6-0.4-0.9-0.5-1-1.5c0-1.1,1.8-1.9,2.9-2.7c2.1-1.7,4.2-3.4,5.5-6.2
				c1.2-2.7-0.6-5.6-0.3-9.1C31.6,21,32.5,20.7,33.6,20.7z"/>
			<g>
				<path class="st2" d="M12,55l0.3,1.3l-5.9,1.4l-0.6-2.5c-0.3-1.4,0.1-2.2,1.1-2.4c0.8-0.2,1.3,0.1,1.7,0.9l0,0
					c-0.1-0.7,0.2-1.1,1.1-1.4c0.1,0,0.1-0.1,0.2-0.1c0.7-0.2,1.1-0.4,1.3-0.6l0.3,1.4c-0.5,0.2-1,0.4-1.5,0.6
					c-0.5,0.2-0.7,0.4-0.6,0.7l0.3,1.4L12,55z M8.6,55.8l-0.2-1.1c-0.1-0.6-0.5-0.8-1-0.7c-0.5,0.1-0.7,0.5-0.5,1.1l0.2,1.1
					L8.6,55.8z"/>
				<path class="st2" d="M5,51.1L4.8,47l1-0.1L6,49.7l1.4-0.1l-0.2-2.6l1-0.1l0.2,2.6l1.6-0.1l-0.2-2.9l1-0.1l0.3,4.2L5,51.1z"/>
				<path class="st2" d="M11,42.6l-5.2,2l0,0l5,0.4l-0.1,1.2l-6-0.5l0.1-1.9l4.9-1.9l0,0l-4.7-0.4l0.1-1.2l6,0.5L11,42.6z"/>
				<path class="st2" d="M12.2,36.5L12,37.5l-5.5,0.2l0,0l5,1.4l-0.3,1.2l-5.8-1.6l0.6-2.1l4.6-0.1l0,0L6.6,34l0.5-2l5.8,1.6
					l-0.3,1.2l-5-1.4l0,0L12.2,36.5z"/>
				<path class="st2" d="M14.2,31.3l-0.5,1.2l-5.5-2.5l0.5-1.2L14.2,31.3z"/>
				<path class="st2" d="M16.5,27.1L11,26.5l0,0l4.3,2.6l-0.6,1L9.5,27l1-1.7l5.3,0.5l0,0l-4-2.5l0.6-1l5.2,3.2L16.5,27.1z"/>
				<path class="st2" d="M19.6,14.6l2.6,2.8c1,1.1,0.9,2.3-0.3,3.5C20.6,22,19.4,22,18.3,21l-2.6-2.8l1-0.9l2.3,2.4
					c0.5,0.5,0.9,0.8,1.2,0.9c0.4,0.1,0.7-0.1,1.1-0.4c0.4-0.3,0.5-0.7,0.5-1.1c0-0.3-0.3-0.7-0.8-1.3l-2.3-2.4L19.6,14.6z"/>
				<path class="st2" d="M27.1,16.6l-4.8-2.8l0,0l2.8,4.2l-1,0.7l-3.4-5l1.6-1.1l4.6,2.7l0,0l-2.7-3.9l1-0.7l3.4,5L27.1,16.6z"/>
				<path class="st2" d="M31.1,14.4L29.9,15l-2.7-5.4L28.4,9L31.1,14.4z"/>
				<path class="st2" d="M30.3,8.1l1.3-0.5l3,4l0,0l0-5l1.2-0.4l-0.2,6.5l-1.3,0.5L30.3,8.1z"/>
				<path class="st2" d="M37.5,5.9l4-0.7l0.2,1L39,6.7L39.2,8l2.5-0.4l0.2,1L39.4,9l0.3,1.6l2.8-0.5l0.2,1l-4.1,0.7L37.5,5.9z"/>
				<path class="st2" d="M44.7,11.1l-1.3,0L43.3,5l2.6,0c1.4,0,2.1,0.5,2.1,1.5c0,0.8-0.4,1.3-1.2,1.5l0,0c0.7,0,1.1,0.5,1.1,1.3
					c0,0.1,0,0.2,0,0.2c0.1,0.7,0.2,1.2,0.4,1.4l-1.4,0c-0.1-0.5-0.2-1.1-0.3-1.6c-0.1-0.5-0.2-0.8-0.6-0.8l-1.4,0L44.7,11.1z
					 M44.7,7.6l1.1,0c0.6,0,0.9-0.3,0.9-0.9c0-0.5-0.3-0.8-0.9-0.7l-1.1,0L44.7,7.6z"/>
				<path class="st2" d="M52.7,7.2c0.1-0.6-0.2-1-0.9-1c-0.6,0-1,0.2-1.1,0.6c-0.1,0.4,0.2,0.8,1,1c0,0,0.1,0,0.2,0.1
					c1.4,0.5,2,1.1,1.9,1.9c-0.2,1.3-1.1,1.8-2.8,1.6c-1.6-0.2-2.3-1-2.1-2.3l1.3,0.2c-0.1,0.7,0.2,1.1,0.9,1.2
					c0.8,0.1,1.2-0.1,1.3-0.6c0.1-0.4-0.3-0.7-1-1c-0.1,0-0.2-0.1-0.2-0.1c-1.3-0.5-1.9-1.1-1.8-1.9c0.2-1.2,1.2-1.8,2.8-1.6
					c1.3,0.2,1.9,0.9,1.8,2.1L52.7,7.2z"/>
				<path class="st2" d="M55.9,12.3L54.6,12l1.5-5.9l1.3,0.3L55.9,12.3z"/>
				<path class="st2" d="M59.5,7l4.6,1.8l-0.4,0.9L62,9.1l-1.9,4.7l-1.2-0.5l1.9-4.7L59.1,8L59.5,7z"/>
				<path class="st2" d="M65.4,14.2l0.4-4.6l1.3,0.8l-0.4,3l2.6-1.7l1.1,0.7l-3.9,2.4l-1,1.7l-1.1-0.7L65.4,14.2z"/>
				<path class="st2" d="M72.4,17.9c1.6-1.4,3-1.4,4.3-0.1c1.3,1.4,1.2,2.8-0.3,4.3c-1.5,1.3-2.9,1.3-4.2,0
					C70.9,20.8,70.9,19.3,72.4,17.9z M73.3,18.9c-1.1,1-1.2,1.9-0.5,2.6c0.7,0.7,1.6,0.6,2.6-0.4c1.1-1,1.3-1.9,0.6-2.6
					C75.3,17.8,74.4,17.9,73.3,18.9z"/>
				<path class="st2" d="M74.7,25l5-3.4l2.2,3.2l-0.8,0.6l-1.5-2.2L78.4,24l1.4,2L79,26.7l-1.4-2l-2.1,1.5L74.7,25z"/>
				<path class="st2" d="M83.8,33.5c0.7-0.3,0.9-0.8,0.6-1.5c-0.3-0.7-1.1-0.8-2.5-0.3c-1.3,0.5-1.9,1.2-1.6,1.9
					c0.3,0.7,0.8,0.9,1.5,0.7l0.5,1.3c-1.3,0.4-2.2-0.2-2.8-1.7c-0.5-1.6,0.1-2.7,2-3.5c1.9-0.7,3.2-0.2,3.9,1.3
					c0.6,1.5,0.2,2.6-1,3.2L83.8,33.5z"/>
				<path class="st2" d="M80.7,37l5.9-1.2l0.2,1.3l-2.3,0.5l0.5,2.3l2.3-0.5l0.3,1.3l-5.9,1.2l-0.2-1.3L84,40l-0.5-2.3l-2.6,0.5
					L80.7,37z"/>
				<path class="st2" d="M81.8,44.6l-0.1-1.3l6-0.4l0.1,1.3L81.8,44.6z"/>
				<path class="st2" d="M81.7,49.6l5.2-2l0,0l-5-0.3l0.1-1.2l6,0.4l-0.1,1.9l-4.9,2l0,0l4.7,0.3l-0.1,1.2l-6-0.4L81.7,49.6z"/>
				<path class="st2" d="M81.4,52.3l5.3,3.7l-0.4,1.5L79.9,58l0.3-1.3l1.4-0.1l0.6-2.3l-1.1-0.8L81.4,52.3z M82.7,56.6l2.7-0.1l0,0
					l-2.3-1.5L82.7,56.6z"/>
			</g>
		</g>
	</g>
	<path class="st0" d="M46.3,12.5c-18.7,0-33.8,15.1-33.8,33.8c0,18.7,15.1,33.8,33.8,33.8S80.2,65,80.2,46.3
		C80.2,27.7,65,12.5,46.3,12.5z M46.3,78.2c-17.6,0-31.8-14.2-31.8-31.8c0-17.6,14.2-31.8,31.8-31.8c17.6,0,31.8,14.2,31.8,31.8
		C78.2,63.9,63.9,78.2,46.3,78.2z"/>
	<path class="st0" d="M46.3,2C21.9,2,2,21.9,2,46.3c0,24.5,19.8,44.3,44.3,44.3c24.5,0,44.3-19.8,44.3-44.3C90.7,21.9,70.8,2,46.3,2
		z M46.3,89.4c-23.8,0-43.1-19.3-43.1-43.1c0-23.8,19.3-43.1,43.1-43.1c23.8,0,43.1,19.3,43.1,43.1C89.4,70.1,70.1,89.4,46.3,89.4z"
		/>
	<path class="st0" d="M46.3,0C20.8,0,0,20.7,0,46.3s20.8,46.3,46.3,46.3c25.6,0,46.3-20.7,46.3-46.3S71.9,0,46.3,0z M46.3,91.7
		C21.3,91.7,1,71.4,1,46.3S21.3,1,46.3,1s45.3,20.3,45.3,45.3S71.4,91.7,46.3,91.7z"/>
</g>
</svg>
